<?xml version="1.0" standalone="no"?>
<!DOCTYPE svg PUBLIC "-//W3C//DTD SVG 20010904//EN"
 "http://www.w3.org/TR/2001/REC-SVG-20010904/DTD/svg10.dtd">
<svg version="1.0" xmlns="http://www.w3.org/2000/svg"
 width="174.000000pt" height="148.000000pt" viewBox="0 0 174.000000 148.000000"
 preserveAspectRatio="xMidYMid meet">

<g transform="translate(0.000000,148.000000) scale(0.100000,-0.100000)"
fill="#000000" stroke="none">
<path d="M824 1276 c108 -46 163 -124 173 -246 7 -79 -3 -91 -47 -60 -17 12
-30 19 -30 16 0 -2 20 -49 45 -103 l44 -98 111 -3 c60 -1 110 1 110 5 0 4 -14
16 -31 26 -30 17 -31 19 -25 68 4 27 2 77 -4 111 -32 176 -159 290 -339 304
l-66 5 59 -25z"/>
<path d="M402 1254 c-14 -9 -22 -26 -22 -43 0 -61 129 -206 292 -328 74 -56
86 -68 78 -84 -6 -10 -10 -20 -10 -23 0 -9 218 -7 223 2 4 6 -21 75 -69 190
l-15 37 -20 -33 c-12 -17 -23 -32 -26 -32 -2 0 -48 32 -101 72 -123 90 -222
190 -222 222 0 37 -67 49 -108 20z"/>
<path d="M807 731 l-49 -6 32 -18 c24 -15 29 -22 20 -32 -21 -25 -118 -55
-179 -55 -71 0 -118 18 -171 66 -22 20 -40 32 -40 27 0 -19 58 -100 99 -136
71 -64 121 -81 237 -82 96 0 103 1 177 38 72 36 78 37 99 23 12 -9 25 -16 29
-16 3 0 -12 45 -34 100 l-41 100 -66 -2 c-36 0 -87 -4 -113 -7z"/>
<path d="M843 449 c14 -8 17 -25 17 -94 0 -57 -4 -85 -12 -88 -7 -3 5 -5 27
-5 22 0 34 2 28 5 -9 3 -13 33 -13 99 l0 94 -32 0 c-27 -1 -30 -2 -15 -11z"/>
<path d="M773 434 c-8 -21 13 -42 28 -27 13 13 5 43 -11 43 -6 0 -13 -7 -17
-16z"/>
<path d="M943 434 c-8 -20 17 -36 34 -22 10 8 10 14 2 24 -15 18 -28 18 -36
-2z"/>
<path d="M408 414 c18 -13 22 -25 22 -74 0 -37 -4 -60 -12 -63 -7 -3 5 -6 26
-6 35 -1 38 1 22 12 -12 9 -17 23 -14 47 l3 35 24 -39 24 -39 23 44 23 44 1
-47 c0 -28 -5 -48 -12 -51 -7 -3 10 -6 37 -6 39 0 46 2 33 10 -26 14 -26 123
0 139 14 8 10 10 -18 8 -29 -3 -38 -9 -55 -40 -11 -21 -23 -38 -26 -38 -3 0
-14 18 -24 40 -17 37 -21 40 -59 40 -39 0 -40 0 -18 -16z"/>
<path d="M1240 395 c-7 -8 -23 -15 -36 -15 -14 0 -30 -10 -40 -25 -15 -23 -15
-27 0 -49 10 -17 12 -27 5 -31 -6 -4 -8 -13 -5 -21 3 -7 1 -16 -4 -19 -18 -11
-11 -43 12 -59 43 -30 118 -9 118 33 0 26 -32 51 -66 51 l-29 1 32 14 c44 19
59 49 39 80 -14 22 -14 23 5 18 17 -5 20 -2 17 13 -4 24 -31 29 -48 9z m-1
-47 c17 -46 -27 -80 -49 -38 -8 14 -8 26 0 40 14 27 39 25 49 -2z m10 -122
c18 -21 2 -46 -29 -46 -33 0 -44 12 -35 40 7 23 47 27 64 6z"/>
<path d="M630 375 c-13 -16 -4 -38 13 -32 7 2 12 10 12 18 0 20 39 18 43 -2 2
-12 -8 -18 -38 -23 -31 -5 -40 -11 -40 -26 0 -24 4 -27 70 -34 30 -3 49 -3 43
0 -9 4 -11 18 -7 45 4 25 2 44 -6 54 -16 19 -74 19 -90 0z m60 -71 c0 -9 -7
-14 -17 -12 -25 5 -28 28 -4 28 12 0 21 -6 21 -16z"/>
<path d="M763 376 c10 -8 17 -26 17 -46 0 -20 -7 -38 -17 -46 -16 -12 -13 -13
27 -14 34 0 41 3 32 12 -7 7 -12 34 -12 60 0 48 0 48 -32 48 -30 -1 -31 -2
-15 -14z"/>
<path d="M933 377 c20 -16 23 -77 5 -95 -9 -9 -4 -12 26 -12 32 0 37 2 26 14
-6 8 -10 34 -8 58 3 43 2 43 -32 46 -31 2 -33 1 -17 -11z"/>
<path d="M1010 380 c-13 -8 -12 -10 4 -10 15 0 17 -6 14 -35 -3 -30 -1 -35 17
-35 18 0 21 5 17 29 -3 20 1 30 13 35 26 10 37 -3 33 -40 -3 -28 -1 -34 14
-34 14 0 18 8 18 39 0 21 -6 43 -12 49 -17 13 -99 14 -118 2z"/>
</g>
</svg>
