<?xml version="1.0" encoding="UTF-8"?>
<svg xmlns="http://www.w3.org/2000/svg" xmlns:xlink="http://www.w3.org/1999/xlink" width="59px" height="50px" viewBox="0 0 58 50" version="1.1">
<g id="surface1">
<path style=" stroke:none;fill-rule:nonzero;fill:rgb(0%,0%,0%);fill-opacity:1;" d="M 27.402344 6.890625 C 30.996094 8.445312 32.824219 11.082031 33.15625 15.203125 C 33.390625 17.871094 33.058594 18.277344 31.59375 17.230469 C 31.027344 16.824219 30.597656 16.585938 30.597656 16.6875 C 30.597656 16.757812 31.261719 18.34375 32.09375 20.167969 L 33.554688 23.480469 L 37.246094 23.582031 C 39.242188 23.613281 40.90625 23.546875 40.90625 23.414062 C 40.90625 23.277344 40.441406 22.871094 39.875 22.535156 C 38.878906 21.960938 38.84375 21.890625 39.042969 20.238281 C 39.175781 19.324219 39.109375 17.636719 38.910156 16.488281 C 37.847656 10.539062 33.621094 6.6875 27.636719 6.214844 L 25.441406 6.046875 Z M 27.402344 6.890625 "/>
<path style=" stroke:none;fill-rule:nonzero;fill:rgb(0%,0%,0%);fill-opacity:1;" d="M 13.371094 7.636719 C 12.902344 7.9375 12.636719 8.511719 12.636719 9.085938 C 12.636719 11.148438 16.929688 16.046875 22.347656 20.167969 C 24.808594 22.0625 25.207031 22.464844 24.941406 23.007812 C 24.742188 23.34375 24.609375 23.683594 24.609375 23.785156 C 24.609375 24.085938 31.859375 24.019531 32.027344 23.714844 C 32.160156 23.511719 31.328125 21.183594 29.730469 17.296875 L 29.234375 16.046875 L 28.566406 17.164062 C 28.167969 17.738281 27.804688 18.242188 27.703125 18.242188 C 27.636719 18.242188 26.105469 17.164062 24.34375 15.8125 C 20.253906 12.769531 16.960938 9.390625 16.960938 8.3125 C 16.960938 7.0625 14.734375 6.65625 13.371094 7.636719 Z M 13.371094 7.636719 "/>
<path style=" stroke:none;fill-rule:nonzero;fill:rgb(0%,0%,0%);fill-opacity:1;" d="M 26.839844 25.304688 L 25.207031 25.507812 L 26.273438 26.113281 C 27.070312 26.621094 27.238281 26.859375 26.9375 27.195312 C 26.238281 28.039062 23.015625 29.054688 20.984375 29.054688 C 18.625 29.054688 17.0625 28.445312 15.296875 26.824219 C 14.566406 26.148438 13.96875 25.742188 13.96875 25.914062 C 13.96875 26.554688 15.898438 29.289062 17.261719 30.507812 C 19.621094 32.667969 21.285156 33.242188 25.140625 33.277344 C 28.335938 33.277344 28.566406 33.242188 31.027344 31.992188 C 33.421875 30.777344 33.621094 30.742188 34.320312 31.214844 C 34.71875 31.519531 35.152344 31.757812 35.285156 31.757812 C 35.386719 31.757812 34.886719 30.238281 34.15625 28.378906 L 32.792969 25 L 30.597656 25.066406 C 29.398438 25.066406 27.703125 25.203125 26.839844 25.304688 Z M 26.839844 25.304688 "/>
<path style=" stroke:none;fill-rule:nonzero;fill:rgb(0%,0%,0%);fill-opacity:1;" d="M 28.035156 34.832031 C 28.5 35.101562 28.601562 35.675781 28.601562 38.007812 C 28.601562 39.933594 28.46875 40.878906 28.203125 40.980469 C 27.96875 41.082031 28.367188 41.148438 29.101562 41.148438 C 29.832031 41.148438 30.230469 41.082031 30.03125 40.980469 C 29.730469 40.878906 29.597656 39.863281 29.597656 37.636719 L 29.597656 34.460938 L 28.535156 34.460938 C 27.636719 34.492188 27.535156 34.527344 28.035156 34.832031 Z M 28.035156 34.832031 "/>
<path style=" stroke:none;fill-rule:nonzero;fill:rgb(0%,0%,0%);fill-opacity:1;" d="M 25.707031 35.335938 C 25.441406 36.046875 26.140625 36.757812 26.640625 36.25 C 27.070312 35.8125 26.804688 34.796875 26.273438 34.796875 C 26.074219 34.796875 25.839844 35.035156 25.707031 35.335938 Z M 25.707031 35.335938 "/>
<path style=" stroke:none;fill-rule:nonzero;fill:rgb(0%,0%,0%);fill-opacity:1;" d="M 31.359375 35.335938 C 31.09375 36.011719 31.925781 36.554688 32.492188 36.082031 C 32.824219 35.8125 32.824219 35.609375 32.558594 35.269531 C 32.058594 34.664062 31.628906 34.664062 31.359375 35.335938 Z M 31.359375 35.335938 "/>
<path style=" stroke:none;fill-rule:nonzero;fill:rgb(0%,0%,0%);fill-opacity:1;" d="M 13.570312 36.011719 C 14.167969 36.453125 14.300781 36.859375 14.300781 38.511719 C 14.300781 39.761719 14.167969 40.539062 13.902344 40.640625 C 13.667969 40.742188 14.066406 40.84375 14.765625 40.84375 C 15.929688 40.878906 16.03125 40.8125 15.496094 40.4375 C 15.097656 40.136719 14.933594 39.664062 15.03125 38.851562 L 15.132812 37.667969 L 15.929688 38.988281 L 16.726562 40.304688 L 17.492188 38.816406 L 18.257812 37.332031 L 18.292969 38.917969 C 18.292969 39.863281 18.125 40.539062 17.890625 40.640625 C 17.660156 40.742188 18.226562 40.84375 19.121094 40.84375 C 20.417969 40.84375 20.652344 40.777344 20.21875 40.507812 C 19.355469 40.035156 19.355469 36.351562 20.21875 35.8125 C 20.6875 35.539062 20.554688 35.472656 19.621094 35.539062 C 18.65625 35.640625 18.359375 35.84375 17.792969 36.890625 C 17.425781 37.601562 17.027344 38.175781 16.929688 38.175781 C 16.828125 38.175781 16.460938 37.566406 16.128906 36.824219 C 15.5625 35.574219 15.429688 35.472656 14.167969 35.472656 C 12.871094 35.472656 12.835938 35.472656 13.570312 36.011719 Z M 13.570312 36.011719 "/>
<path style=" stroke:none;fill-rule:nonzero;fill:rgb(0%,0%,0%);fill-opacity:1;" d="M 41.238281 36.65625 C 41.003906 36.925781 40.472656 37.164062 40.042969 37.164062 C 39.574219 37.164062 39.042969 37.5 38.710938 38.007812 C 38.210938 38.785156 38.210938 38.917969 38.710938 39.664062 C 39.042969 40.238281 39.109375 40.574219 38.878906 40.710938 C 38.679688 40.84375 38.609375 41.148438 38.710938 41.417969 C 38.8125 41.65625 38.746094 41.960938 38.578125 42.0625 C 37.980469 42.433594 38.210938 43.511719 38.976562 44.054688 C 40.40625 45.066406 42.902344 44.359375 42.902344 42.9375 C 42.902344 42.0625 41.835938 41.214844 40.707031 41.214844 L 39.742188 41.183594 L 40.804688 40.710938 C 42.269531 40.066406 42.769531 39.054688 42.101562 38.007812 C 41.636719 37.261719 41.636719 37.230469 42.269531 37.398438 C 42.835938 37.566406 42.933594 37.464844 42.835938 36.960938 C 42.703125 36.148438 41.804688 35.980469 41.238281 36.65625 Z M 41.207031 38.242188 C 41.769531 39.796875 40.308594 40.945312 39.574219 39.527344 C 39.308594 39.054688 39.308594 38.648438 39.574219 38.175781 C 40.042969 37.261719 40.871094 37.332031 41.207031 38.242188 Z M 41.539062 42.363281 C 42.136719 43.074219 41.605469 43.917969 40.574219 43.917969 C 39.476562 43.917969 39.109375 43.511719 39.410156 42.566406 C 39.640625 41.789062 40.972656 41.65625 41.539062 42.363281 Z M 41.539062 42.363281 "/>
<path style=" stroke:none;fill-rule:nonzero;fill:rgb(0%,0%,0%);fill-opacity:1;" d="M 20.953125 37.332031 C 20.519531 37.871094 20.820312 38.613281 21.382812 38.414062 C 21.617188 38.34375 21.785156 38.074219 21.785156 37.804688 C 21.785156 37.128906 23.082031 37.195312 23.214844 37.871094 C 23.28125 38.277344 22.945312 38.480469 21.949219 38.648438 C 20.917969 38.816406 20.621094 39.019531 20.621094 39.527344 C 20.621094 40.335938 20.753906 40.4375 22.945312 40.675781 C 23.945312 40.777344 24.578125 40.777344 24.378906 40.675781 C 24.078125 40.539062 24.011719 40.066406 24.144531 39.15625 C 24.277344 38.3125 24.210938 37.667969 23.945312 37.332031 C 23.414062 36.6875 21.484375 36.6875 20.953125 37.332031 Z M 22.945312 39.730469 C 22.945312 40.035156 22.714844 40.203125 22.382812 40.136719 C 21.550781 39.964844 21.449219 39.1875 22.25 39.1875 C 22.648438 39.1875 22.945312 39.390625 22.945312 39.730469 Z M 22.945312 39.730469 "/>
<path style=" stroke:none;fill-rule:nonzero;fill:rgb(0%,0%,0%);fill-opacity:1;" d="M 25.375 37.296875 C 25.707031 37.566406 25.941406 38.175781 25.941406 38.851562 C 25.941406 39.527344 25.707031 40.136719 25.375 40.40625 C 24.84375 40.8125 24.941406 40.84375 26.273438 40.878906 C 27.402344 40.878906 27.636719 40.777344 27.335938 40.472656 C 27.105469 40.238281 26.9375 39.324219 26.9375 38.445312 C 26.9375 36.824219 26.9375 36.824219 25.875 36.824219 C 24.875 36.859375 24.84375 36.890625 25.375 37.296875 Z M 25.375 37.296875 "/>
<path style=" stroke:none;fill-rule:nonzero;fill:rgb(0%,0%,0%);fill-opacity:1;" d="M 31.027344 37.261719 C 31.695312 37.804688 31.792969 39.863281 31.195312 40.472656 C 30.894531 40.777344 31.0625 40.878906 32.058594 40.878906 C 33.125 40.878906 33.289062 40.8125 32.925781 40.40625 C 32.726562 40.136719 32.589844 39.257812 32.660156 38.445312 C 32.757812 36.992188 32.726562 36.992188 31.59375 36.890625 C 30.5625 36.824219 30.496094 36.859375 31.027344 37.261719 Z M 31.027344 37.261719 "/>
<path style=" stroke:none;fill-rule:nonzero;fill:rgb(0%,0%,0%);fill-opacity:1;" d="M 33.589844 37.164062 C 33.15625 37.433594 33.191406 37.5 33.722656 37.5 C 34.222656 37.5 34.289062 37.703125 34.1875 38.683594 C 34.089844 39.695312 34.15625 39.863281 34.753906 39.863281 C 35.351562 39.863281 35.453125 39.695312 35.320312 38.886719 C 35.21875 38.210938 35.351562 37.871094 35.75 37.703125 C 36.617188 37.363281 36.980469 37.804688 36.847656 39.054688 C 36.75 40 36.816406 40.203125 37.3125 40.203125 C 37.78125 40.203125 37.914062 39.933594 37.914062 38.886719 C 37.914062 38.175781 37.714844 37.433594 37.515625 37.230469 C 36.949219 36.789062 34.222656 36.757812 33.589844 37.164062 Z M 33.589844 37.164062 "/>
</g>
</svg>
