<?xml version="1.0" encoding="UTF-8"?>
<svg xmlns="http://www.w3.org/2000/svg" xmlns:xlink="http://www.w3.org/1999/xlink" width="71px" height="60px" viewBox="0 0 70 60" version="1.1">
<g id="surface1">
<path style=" stroke:none;fill-rule:evenodd;fill:rgb(100%,100%,100%);fill-opacity:1;" d="M 0 30.003906 L 0 60.003906 L 35.101562 59.902344 L 70.199219 59.796875 L 70.304688 29.898438 L 70.40625 0 L 0 0 L 0 30.003906 M 0.191406 30.203125 C 0.191406 46.703125 0.242188 53.394531 0.300781 45.070312 C 0.363281 36.75 0.363281 23.25 0.300781 15.070312 C 0.242188 6.894531 0.191406 13.703125 0.191406 30.203125 M 32.519531 8.136719 C 36.644531 9.480469 39.828125 13.5 39.828125 17.363281 C 39.828125 18.285156 39.769531 18.316406 39.125 17.753906 C 38.734375 17.417969 37.105469 16.363281 35.5 15.414062 C 32.332031 13.539062 31.992188 13.539062 29.226562 15.363281 C 28.085938 16.117188 28.085938 16.117188 31.167969 17.832031 C 34.0625 19.441406 34.277344 19.5 34.777344 18.816406 C 35.277344 18.125 35.414062 18.15625 37.265625 19.367188 C 39.007812 20.511719 39.253906 20.574219 39.496094 19.953125 C 39.695312 19.445312 39.777344 19.570312 39.800781 20.40625 C 39.828125 21.550781 39.828125 21.550781 38.417969 20.675781 C 37.644531 20.191406 37.011719 19.964844 37.011719 20.171875 C 37.011719 20.375 37.820312 22.351562 38.808594 24.5625 C 40.851562 29.140625 39.800781 28.636719 46.96875 28.445312 C 50.488281 28.351562 50.488281 28.351562 48.925781 27.386719 C 47.363281 26.417969 47.363281 26.417969 47.304688 22.429688 C 47.226562 17.359375 46.042969 14.433594 42.8125 11.355469 C 39.917969 8.597656 37.648438 7.660156 33.390625 7.464844 L 29.972656 7.308594 L 32.519531 8.136719 M 26.835938 8.671875 C 25.992188 8.984375 24.585938 9.722656 23.707031 10.308594 C 21.792969 11.585938 21.902344 11.972656 24.917969 14.53125 C 26.972656 16.28125 26.972656 16.28125 28.855469 15.023438 C 31.054688 13.554688 34.074219 12.566406 36.355469 12.566406 C 37.964844 12.566406 37.964844 12.566406 36.785156 11.3125 C 34.304688 8.683594 29.914062 7.515625 26.835938 8.671875 M 15.675781 9.339844 C 15.035156 9.984375 14.882812 10.484375 15.078125 11.285156 C 15.808594 14.253906 20.761719 19.695312 27.082031 24.46875 C 29.136719 26.019531 30.148438 27.039062 29.996094 27.40625 C 29.171875 29.457031 29 29.339844 32.378906 29.050781 C 34.109375 28.902344 36.386719 28.785156 37.441406 28.785156 L 39.363281 28.785156 L 37.945312 25.238281 C 35.101562 18.109375 35.480469 18.675781 34.539062 20.171875 C 34.085938 20.894531 33.558594 21.488281 33.367188 21.488281 C 33.179688 21.488281 31.234375 20.128906 29.046875 18.46875 C 24.199219 14.789062 20.429688 10.824219 20.601562 9.585938 C 20.707031 8.804688 20.503906 8.703125 18.625 8.59375 C 16.925781 8.496094 16.375 8.632812 15.675781 9.339844 M 20.925781 9.628906 C 20.929688 9.796875 21.089844 10.183594 21.285156 10.492188 C 21.582031 10.96875 21.765625 10.960938 22.484375 10.457031 C 22.949219 10.128906 23.207031 9.738281 23.0625 9.59375 C 22.695312 9.222656 20.917969 9.253906 20.925781 9.628906 M 17.320312 17.796875 C 16.617188 19.117188 15.6875 23.183594 15.695312 24.917969 C 15.699219 27.089844 17.230469 30.3125 19.011719 31.886719 C 20.304688 33.027344 23.164062 34.359375 23.53125 33.988281 C 23.613281 33.910156 23.335938 32.839844 22.914062 31.617188 C 22.007812 28.96875 21.925781 26.339844 22.671875 23.839844 C 23.21875 22.011719 23.21875 22.011719 20.480469 19.511719 C 17.949219 17.199219 17.707031 17.070312 17.320312 17.796875 M 47.726562 24.933594 C 47.585938 25.304688 47.472656 25.671875 47.472656 25.75 C 47.472656 25.832031 48.375 26.390625 49.484375 27 C 51.503906 28.105469 51.839844 28.523438 51.09375 28.988281 C 50.292969 29.484375 50.683594 30.40625 51.695312 30.40625 C 53.347656 30.40625 52.90625 29.167969 50.34375 26.609375 C 48.441406 24.714844 47.933594 24.390625 47.726562 24.933594 M 16.28125 30 C 16.925781 32.152344 18.753906 35.015625 20.4375 36.511719 C 25.394531 40.90625 31.628906 41.570312 37.878906 38.375 C 40.558594 37.003906 40.558594 37.003906 41.800781 37.800781 C 42.484375 38.234375 43.046875 38.421875 43.046875 38.210938 C 43.046875 37.589844 39.980469 30.386719 39.585938 30.078125 C 39.125 29.71875 30.171875 29.957031 30.175781 30.328125 C 30.179688 30.484375 30.859375 31.003906 31.683594 31.488281 C 33.191406 32.367188 33.191406 32.367188 30.777344 33.496094 C 25.785156 35.828125 20.335938 34.730469 17.347656 30.789062 C 16.335938 29.457031 16.058594 29.25 16.28125 30 M 44.753906 29.492188 C 42.929688 29.566406 41.4375 29.78125 41.4375 29.96875 C 41.4375 30.378906 44.429688 37.207031 44.753906 37.53125 C 44.878906 37.65625 45.285156 37.238281 45.660156 36.597656 C 46.339844 35.4375 46.339844 35.4375 49.019531 36.140625 C 52.394531 37.027344 53.503906 37.050781 54.621094 36.261719 C 55.730469 35.480469 55.765625 34.109375 54.734375 32.070312 C 53.949219 30.523438 53.945312 30.519531 51.855469 30.722656 C 49.871094 30.914062 49.773438 30.878906 49.988281 30.058594 C 50.179688 29.320312 50.054688 29.203125 49.144531 29.273438 C 48.554688 29.316406 46.582031 29.414062 44.753906 29.492188 M 33.621094 41.300781 C 32.960938 41.570312 32.9375 41.652344 33.484375 41.863281 C 33.949219 42.042969 34.199219 42.933594 34.402344 45.140625 C 34.726562 48.632812 34.53125 49.265625 33.320312 48.609375 C 32.609375 48.226562 32.519531 47.878906 32.679688 46.175781 C 32.871094 44.1875 32.871094 44.1875 31.21875 44.203125 C 29.839844 44.210938 29.671875 44.296875 30.207031 44.707031 C 31.652344 45.832031 31.449219 48.648438 29.921875 48.648438 C 29.535156 48.648438 29.367188 48.109375 29.367188 46.851562 C 29.367188 44.070312 27.820312 43.015625 25.808594 44.433594 C 25.25 44.828125 24.980469 45.328125 25.125 45.703125 C 25.253906 46.042969 25.152344 46.570312 24.898438 46.875 C 24.554688 47.292969 24.566406 47.582031 24.941406 48.039062 C 25.484375 48.695312 25.070312 48.84375 24.214844 48.300781 C 23.5 47.84375 24.003906 43.761719 24.863281 43.074219 C 25.425781 42.628906 25.398438 42.566406 24.648438 42.566406 C 24.183594 42.566406 23.527344 42.460938 23.195312 42.332031 C 22.78125 42.171875 22.289062 42.625 21.652344 43.75 C 21.140625 44.65625 20.617188 45.402344 20.492188 45.402344 C 20.367188 45.402344 19.960938 44.765625 19.59375 43.988281 C 18.960938 42.648438 18.808594 42.570312 17.003906 42.59375 C 15.386719 42.617188 15.222656 42.6875 15.945312 43.042969 C 16.496094 43.3125 16.890625 43.988281 17.046875 44.941406 C 17.515625 47.796875 17.375 48.460938 16.191406 48.933594 C 15.234375 49.3125 15.464844 49.375 17.902344 49.375 C 20.339844 49.375 20.570312 49.3125 19.613281 48.933594 C 19.003906 48.691406 18.503906 48.207031 18.5 47.859375 C 18.496094 47.515625 18.394531 46.773438 18.273438 46.214844 C 18.113281 45.480469 18.355469 45.691406 19.152344 46.972656 L 20.253906 48.742188 L 21.171875 46.972656 C 22.089844 45.203125 22.089844 45.203125 22.109375 46.703125 C 22.121094 47.703125 21.890625 48.351562 21.421875 48.65625 C 20.886719 49 21.496094 49.054688 23.988281 48.894531 C 25.785156 48.777344 27.378906 48.804688 27.53125 48.957031 C 27.679688 49.109375 29.171875 49.175781 30.84375 49.105469 C 33.148438 49.007812 33.8125 49.097656 33.585938 49.46875 C 33.359375 49.839844 33.722656 49.894531 35.046875 49.699219 C 41.128906 48.804688 40.875 48.871094 40.074219 48.394531 C 39.453125 48.027344 39.367188 47.671875 39.59375 46.449219 C 39.800781 45.335938 40.050781 44.984375 40.554688 45.082031 C 41.398438 45.242188 41.703125 47.011719 40.96875 47.480469 C 40.621094 47.703125 41.003906 47.824219 42.039062 47.824219 C 43.085938 47.824219 43.460938 47.703125 43.105469 47.480469 C 42.3125 46.972656 42.710938 45.609375 43.65625 45.609375 C 44.738281 45.609375 44.96875 47.308594 43.984375 48.058594 C 43.320312 48.566406 43.425781 48.625 45.039062 48.636719 C 46.429688 48.644531 46.71875 48.539062 46.34375 48.164062 C 46.078125 47.894531 45.863281 47 45.863281 46.179688 C 45.863281 45.214844 45.644531 44.597656 45.253906 44.445312 C 44.917969 44.316406 42.8125 44.214844 40.570312 44.222656 C 36.84375 44.238281 36.574219 44.289062 37.359375 44.84375 C 38.511719 45.65625 38.535156 47.851562 37.398438 48.566406 C 35.984375 49.453125 35.710938 48.792969 35.863281 44.847656 C 35.996094 41.390625 35.953125 41.144531 35.199219 41.070312 C 34.757812 41.023438 34.046875 41.128906 33.621094 41.300781 M 31.128906 42.34375 C 30.847656 43.082031 31.257812 43.785156 31.964844 43.785156 C 32.578125 43.785156 32.953125 43.007812 32.695312 42.261719 C 32.453125 41.570312 31.40625 41.625 31.128906 42.34375 M 37.960938 42.363281 C 37.824219 42.726562 37.902344 43.222656 38.136719 43.460938 C 38.75 44.078125 39.910156 43.511719 39.753906 42.675781 C 39.574219 41.742188 38.285156 41.515625 37.960938 42.363281 M 49.886719 43.734375 C 49.886719 43.929688 49.363281 44.191406 48.726562 44.320312 C 47.050781 44.660156 46.144531 45.71875 46.4375 46.988281 C 46.835938 48.730469 46.929688 50.269531 46.636719 50.269531 C 46.484375 50.269531 46.261719 50.648438 46.140625 51.109375 C 45.8125 52.375 47.167969 53.511719 49.003906 53.511719 C 51.070312 53.511719 52 52.773438 51.832031 51.265625 C 51.722656 50.308594 51.417969 49.976562 50.304688 49.613281 C 49.03125 49.199219 48.988281 49.136719 49.800781 48.878906 C 50.90625 48.523438 51.636719 47.214844 51.347656 46.105469 C 51.214844 45.59375 51.382812 45.078125 51.777344 44.789062 C 52.132812 44.527344 52.292969 44.101562 52.136719 43.84375 C 51.804688 43.304688 49.886719 43.207031 49.886719 43.734375 M 26.441406 45.390625 C 26.277344 46.015625 26.417969 46.214844 27.019531 46.214844 C 27.546875 46.214844 27.773438 45.988281 27.6875 45.539062 C 27.496094 44.535156 26.6875 44.4375 26.441406 45.390625 M 48.296875 45.582031 C 47.554688 46.484375 47.925781 48.039062 48.878906 48.039062 C 49.445312 48.039062 49.71875 47.730469 49.804688 46.992188 C 49.960938 45.640625 48.996094 44.734375 48.296875 45.582031 M 26.351562 47.433594 C 26.214844 47.65625 26.476562 47.835938 26.929688 47.835938 C 27.386719 47.835938 27.757812 47.65625 27.757812 47.433594 C 27.757812 47.210938 27.496094 47.027344 27.179688 47.027344 C 26.859375 47.027344 26.488281 47.210938 26.351562 47.433594 M 47.890625 50.859375 C 47.46875 51.371094 47.46875 51.601562 47.890625 52.113281 C 48.695312 53.09375 50.085938 52.695312 50.085938 51.488281 C 50.085938 50.277344 48.695312 49.878906 47.890625 50.859375 "/>
<path style=" stroke:none;fill-rule:evenodd;fill:rgb(54.509804%,52.54902%,70.980392%);fill-opacity:1;" d="M 31.511719 7.972656 C 31.660156 8.121094 31.902344 8.121094 32.050781 7.972656 C 32.195312 7.824219 32.078125 7.703125 31.78125 7.703125 C 31.488281 7.703125 31.367188 7.824219 31.511719 7.972656 M 26.835938 8.691406 C 24.292969 9.609375 22.113281 11.25 22.40625 12.023438 C 22.597656 12.527344 22.519531 12.617188 22.09375 12.371094 C 21.78125 12.191406 22.238281 12.800781 23.113281 13.722656 C 24.652344 15.351562 25.558594 16.03125 24.539062 14.796875 C 24.265625 14.460938 24.210938 14.1875 24.421875 14.1875 C 24.9375 14.1875 26.613281 16.019531 26.34375 16.289062 C 26.226562 16.410156 26.449219 16.75 26.84375 17.050781 C 27.445312 17.511719 27.480469 17.507812 27.070312 17.042969 C 26.011719 15.84375 32.742188 12.566406 36.257812 12.566406 C 37.089844 12.566406 37.898438 12.339844 38.058594 12.0625 C 38.21875 11.78125 38.195312 11.695312 38.007812 11.863281 C 37.5625 12.269531 35.355469 10.132812 35.679688 9.605469 C 35.816406 9.382812 35.734375 9.320312 35.496094 9.46875 C 35.015625 9.765625 32.925781 8.949219 33.160156 8.554688 C 33.460938 8.050781 28.300781 8.160156 26.835938 8.691406 M 19.636719 8.789062 C 19.925781 8.90625 20.273438 8.894531 20.410156 8.757812 C 20.542969 8.625 20.304688 8.527344 19.878906 8.546875 C 19.410156 8.566406 19.316406 8.660156 19.636719 8.789062 M 21.0625 10.300781 C 21.117188 11.25 21.152344 11.257812 22.207031 10.632812 C 23.441406 9.898438 23.324219 9.324219 21.945312 9.324219 C 21.203125 9.324219 21.015625 9.53125 21.0625 10.300781 M 14.917969 10.777344 C 14.9375 11.25 15.03125 11.34375 15.160156 11.023438 C 15.277344 10.730469 15.261719 10.378906 15.128906 10.246094 C 14.996094 10.109375 14.898438 10.347656 14.917969 10.777344 M 23.132812 13.378906 C 23.53125 13.824219 23.949219 14.1875 24.0625 14.1875 C 24.171875 14.1875 23.933594 13.824219 23.535156 13.378906 C 23.132812 12.933594 22.714844 12.566406 22.605469 12.566406 C 22.496094 12.566406 22.730469 12.933594 23.132812 13.378906 M 30.171875 14.835938 C 29.175781 15.410156 28.304688 15.9375 28.238281 16.003906 C 28.167969 16.074219 29.492188 16.898438 31.179688 17.835938 C 34.046875 19.433594 34.28125 19.496094 34.769531 18.824219 C 35.261719 18.144531 35.367188 18.152344 36.757812 19.019531 C 37.5625 19.523438 38.144531 20.0625 38.050781 20.21875 C 37.953125 20.375 38.222656 20.5 38.648438 20.5 C 39.078125 20.5 39.4375 20.222656 39.453125 19.878906 C 39.472656 19.445312 39.585938 19.503906 39.828125 20.066406 C 40.082031 20.664062 40.171875 20.339844 40.171875 18.851562 C 40.171875 17.511719 40.070312 17.089844 39.867188 17.609375 C 39.679688 18.09375 39.460938 18.222656 39.292969 17.949219 C 38.976562 17.429688 32.886719 13.78125 32.351562 13.789062 C 32.148438 13.792969 31.167969 14.261719 30.171875 14.835938 M 18.101562 16.417969 C 18.625 16.976562 19.140625 17.433594 19.25 17.433594 C 19.359375 17.433594 19.027344 16.976562 18.503906 16.417969 C 17.984375 15.863281 17.46875 15.40625 17.359375 15.40625 C 17.25 15.40625 17.582031 15.863281 18.101562 16.417969 M 17.339844 17.757812 C 16.617188 19.121094 15.6875 23.167969 15.699219 24.917969 C 15.703125 25.816406 16.066406 27.355469 16.507812 28.332031 C 17.164062 29.789062 17.214844 30.226562 16.800781 30.765625 C 16.363281 31.332031 16.378906 31.351562 16.929688 30.917969 C 17.457031 30.503906 17.746094 30.613281 18.644531 31.554688 C 19.238281 32.179688 19.585938 32.84375 19.417969 33.03125 C 19.246094 33.21875 19.308594 33.257812 19.554688 33.117188 C 19.804688 32.976562 20.753906 33.15625 21.671875 33.519531 C 22.589844 33.882812 23.417969 34.105469 23.507812 34.011719 C 23.601562 33.917969 23.335938 32.839844 22.914062 31.617188 C 22.050781 29.097656 21.929688 26.476562 22.5625 24.171875 C 23.316406 21.4375 23.296875 21.183594 22.207031 20.210938 C 21.625 19.6875 21.386719 19.578125 21.683594 19.964844 C 22.734375 21.347656 21.523438 20.648438 19.664062 18.804688 C 17.871094 17.023438 17.757812 16.972656 17.339844 17.757812 M 28.363281 18.242188 C 28.5 18.464844 28.703125 18.648438 28.8125 18.648438 C 28.921875 18.648438 28.902344 18.464844 28.765625 18.242188 C 28.628906 18.019531 28.425781 17.835938 28.316406 17.835938 C 28.203125 17.835938 28.226562 18.019531 28.363281 18.242188 M 29.972656 19.460938 C 30.109375 19.683594 30.308594 19.863281 30.421875 19.863281 C 30.53125 19.863281 30.511719 19.683594 30.375 19.460938 C 30.238281 19.238281 30.035156 19.054688 29.921875 19.054688 C 29.8125 19.054688 29.835938 19.238281 29.972656 19.460938 M 35.199219 19.460938 C 35.339844 19.683594 35.539062 19.863281 35.652344 19.863281 C 35.761719 19.863281 35.738281 19.683594 35.601562 19.460938 C 35.464844 19.238281 35.265625 19.054688 35.152344 19.054688 C 35.042969 19.054688 35.0625 19.238281 35.199219 19.460938 M 34.359375 20.332031 C 34.179688 20.621094 34.246094 20.691406 34.535156 20.511719 C 34.789062 20.351562 35 20.140625 35 20.042969 C 35 19.707031 34.644531 19.867188 34.359375 20.332031 M 47.070312 20.269531 C 47.070312 20.566406 47.191406 20.6875 47.335938 20.539062 C 47.484375 20.390625 47.484375 20.148438 47.335938 20 C 47.191406 19.851562 47.070312 19.972656 47.070312 20.269531 M 22.328125 21.082031 C 22.464844 21.304688 22.667969 21.488281 22.777344 21.488281 C 22.886719 21.488281 22.867188 21.304688 22.730469 21.082031 C 22.59375 20.859375 22.390625 20.675781 22.28125 20.675781 C 22.167969 20.675781 22.191406 20.859375 22.328125 21.082031 M 24.742188 22.703125 C 24.878906 22.925781 25.082031 23.109375 25.191406 23.109375 C 25.300781 23.109375 25.28125 22.925781 25.144531 22.703125 C 25.007812 22.480469 24.804688 22.296875 24.695312 22.296875 C 24.582031 22.296875 24.605469 22.480469 24.742188 22.703125 M 26.753906 24.324219 C 26.890625 24.546875 27.09375 24.730469 27.203125 24.730469 C 27.3125 24.730469 27.292969 24.546875 27.15625 24.324219 C 27.019531 24.101562 26.816406 23.917969 26.707031 23.917969 C 26.59375 23.917969 26.617188 24.101562 26.753906 24.324219 M 47.230469 24.863281 C 47.363281 25.273438 47.472656 25.671875 47.472656 25.75 C 47.472656 25.832031 48.375 26.390625 49.484375 27 C 51.503906 28.105469 51.839844 28.523438 51.09375 28.988281 C 50.292969 29.484375 50.683594 30.40625 51.695312 30.40625 C 53.359375 30.40625 52.902344 29.164062 50.289062 26.554688 C 48.960938 25.230469 47.871094 24.414062 47.867188 24.742188 C 47.863281 25.257812 47.804688 25.257812 47.425781 24.730469 C 47.066406 24.222656 47.03125 24.246094 47.230469 24.863281 M 29.367188 26.097656 C 29.367188 26.183594 29.683594 26.503906 30.070312 26.808594 C 30.710938 27.3125 30.722656 27.296875 30.222656 26.65625 C 29.699219 25.980469 29.367188 25.765625 29.367188 26.097656 M 40.589844 28.5 C 40.777344 28.6875 41.542969 28.78125 42.289062 28.703125 C 43.617188 28.566406 43.609375 28.554688 41.949219 28.359375 C 41.015625 28.246094 40.402344 28.3125 40.589844 28.5 M 30.273438 29.074219 C 30.882812 29.167969 31.878906 29.167969 32.484375 29.074219 C 33.09375 28.980469 32.597656 28.90625 31.378906 28.90625 C 30.164062 28.90625 29.664062 28.980469 30.273438 29.074219 M 16.09375 29.59375 C 16.09375 29.890625 16.210938 30.011719 16.359375 29.863281 C 16.507812 29.714844 16.507812 29.472656 16.359375 29.324219 C 16.210938 29.175781 16.09375 29.296875 16.09375 29.59375 M 48.007812 29.460938 C 48.15625 29.609375 48.398438 29.609375 48.542969 29.460938 C 48.691406 29.3125 48.570312 29.1875 48.277344 29.1875 C 47.980469 29.1875 47.859375 29.3125 48.007812 29.460938 M 38.753906 29.863281 C 38.902344 30.011719 39.144531 30.011719 39.292969 29.863281 C 39.4375 29.714844 39.316406 29.59375 39.023438 29.59375 C 38.726562 29.59375 38.605469 29.714844 38.753906 29.863281 M 30.171875 30.367188 C 30.171875 30.570312 30.535156 30.640625 30.976562 30.523438 C 31.417969 30.40625 31.78125 30.242188 31.78125 30.15625 C 31.78125 30.070312 31.417969 30 30.976562 30 C 30.535156 30 30.171875 30.164062 30.171875 30.367188 M 18.707031 34.863281 C 18.84375 35.085938 19.046875 35.269531 19.15625 35.269531 C 19.265625 35.269531 19.246094 35.085938 19.109375 34.863281 C 18.972656 34.640625 18.769531 34.460938 18.660156 34.460938 C 18.546875 34.460938 18.570312 34.640625 18.707031 34.863281 M 27.089844 34.730469 C 27.234375 34.878906 27.476562 34.878906 27.625 34.730469 C 27.773438 34.582031 27.652344 34.460938 27.355469 34.460938 C 27.0625 34.460938 26.941406 34.582031 27.089844 34.730469 M 29.675781 40.421875 C 30.175781 40.519531 30.898438 40.515625 31.285156 40.414062 C 31.667969 40.3125 31.257812 40.234375 30.375 40.238281 C 29.488281 40.242188 29.175781 40.324219 29.675781 40.421875 M 34.875 41.207031 C 35.503906 41.347656 35.808594 41.769531 35.933594 42.695312 C 36.105469 43.941406 36.109375 43.9375 36.058594 42.566406 C 36.011719 41.359375 35.855469 41.140625 35 41.082031 C 34.160156 41.027344 34.140625 41.046875 34.875 41.207031 M 34.175781 43.492188 C 34.371094 45.160156 34.378906 45.167969 34.515625 43.832031 C 34.59375 43.082031 34.503906 42.308594 34.316406 42.121094 C 34.128906 41.933594 34.066406 42.546875 34.175781 43.492188 M 37.980469 42.226562 C 37.800781 42.515625 37.867188 42.582031 38.15625 42.402344 C 38.621094 42.113281 38.777344 41.757812 38.441406 41.757812 C 38.34375 41.757812 38.136719 41.96875 37.980469 42.226562 M 39.324219 42.632812 C 39.519531 43.382812 39.421875 43.472656 38.625 43.261719 C 37.964844 43.089844 37.824219 43.144531 38.132812 43.453125 C 38.371094 43.695312 38.851562 43.78125 39.195312 43.648438 C 39.882812 43.382812 40.046875 42.347656 39.460938 41.984375 C 39.261719 41.859375 39.199219 42.148438 39.324219 42.632812 M 22.332031 42.5625 C 22.191406 42.792969 22.351562 42.859375 22.707031 42.722656 C 23.40625 42.453125 23.535156 42.164062 22.953125 42.164062 C 22.746094 42.164062 22.464844 42.34375 22.332031 42.5625 M 15.992188 43.0625 C 16.554688 43.335938 16.917969 43.898438 16.953125 44.554688 C 17.007812 45.609375 17.007812 45.609375 17.191406 44.617188 C 17.375 43.636719 16.457031 42.535156 15.511719 42.59375 C 15.277344 42.609375 15.492188 42.820312 15.992188 43.0625 M 23.894531 43.546875 C 23.773438 43.863281 23.742188 44.636719 23.820312 45.269531 C 23.9375 46.207031 24 46.101562 24.164062 44.695312 C 24.367188 42.921875 24.277344 42.542969 23.894531 43.546875 M 21.320312 44.1875 C 21.085938 44.636719 20.980469 45 21.09375 45 C 21.203125 45 21.488281 44.636719 21.722656 44.1875 C 21.960938 43.742188 22.0625 43.378906 21.953125 43.378906 C 21.84375 43.378906 21.558594 43.742188 21.320312 44.1875 M 31.707031 43.65625 C 31.996094 43.773438 32.34375 43.757812 32.476562 43.625 C 32.609375 43.488281 32.375 43.394531 31.949219 43.410156 C 31.480469 43.429688 31.386719 43.527344 31.707031 43.65625 M 51.667969 44.1875 C 51.667969 44.714844 51.804688 44.851562 52.0625 44.589844 C 52.324219 44.328125 52.324219 44.050781 52.0625 43.789062 C 51.804688 43.527344 51.667969 43.664062 51.667969 44.1875 M 26.851562 44.050781 C 27.128906 44.164062 27.582031 44.164062 27.859375 44.050781 C 28.136719 43.941406 27.910156 43.847656 27.355469 43.847656 C 26.804688 43.847656 26.578125 43.941406 26.851562 44.050781 M 30.226562 44.71875 C 30.585938 44.996094 30.988281 45.582031 31.117188 46.023438 C 31.25 46.484375 31.292969 46.335938 31.210938 45.671875 C 31.089844 44.648438 31.183594 44.539062 32.03125 44.703125 C 32.558594 44.804688 32.988281 44.730469 32.988281 44.539062 C 32.988281 44.347656 32.21875 44.195312 31.277344 44.203125 C 29.832031 44.214844 29.667969 44.292969 30.226562 44.71875 M 36.640625 44.300781 C 36.734375 44.367188 37.160156 44.6875 37.589844 45.011719 C 38.078125 45.386719 38.261719 45.417969 38.070312 45.101562 C 37.867188 44.761719 38.042969 44.59375 38.597656 44.59375 C 39.179688 44.59375 39.433594 44.867188 39.453125 45.507812 C 39.480469 46.339844 39.507812 46.351562 39.785156 45.636719 C 39.953125 45.210938 40.4375 44.734375 40.863281 44.582031 C 41.308594 44.421875 40.535156 44.277344 39.054688 44.242188 C 37.632812 44.210938 36.542969 44.234375 36.640625 44.300781 M 42.972656 44.464844 C 43.261719 44.582031 43.609375 44.570312 43.742188 44.433594 C 43.875 44.300781 43.636719 44.203125 43.214844 44.222656 C 42.746094 44.242188 42.648438 44.335938 42.972656 44.464844 M 48.578125 44.457031 C 48.855469 44.570312 49.308594 44.570312 49.582031 44.457031 C 49.859375 44.34375 49.632812 44.253906 49.082031 44.253906 C 48.527344 44.253906 48.300781 44.34375 48.578125 44.457031 M 50.289062 44.546875 C 50.289062 44.769531 50.46875 45.066406 50.691406 45.203125 C 50.910156 45.339844 51.09375 45.269531 51.09375 45.046875 C 51.09375 44.824219 50.910156 44.53125 50.691406 44.390625 C 50.46875 44.253906 50.289062 44.324219 50.289062 44.546875 M 26.148438 45.140625 C 26.148438 45.441406 25.789062 46.015625 25.34375 46.417969 C 24.902344 46.824219 24.546875 47.351562 24.550781 47.597656 C 24.558594 47.839844 24.75 47.722656 24.976562 47.332031 C 25.199219 46.941406 25.660156 46.621094 25.992188 46.621094 C 26.324219 46.621094 26.488281 46.804688 26.347656 47.03125 C 26.203125 47.265625 26.53125 47.238281 27.128906 46.964844 C 28.136719 46.5 28.519531 45.273438 27.796875 44.820312 C 27.59375 44.695312 27.527344 44.957031 27.640625 45.40625 C 27.800781 46.019531 27.65625 46.214844 27.039062 46.214844 C 26.421875 46.214844 26.277344 46.019531 26.433594 45.40625 C 26.550781 44.960938 26.535156 44.59375 26.398438 44.59375 C 26.261719 44.59375 26.148438 44.839844 26.148438 45.140625 M 45.460938 45 C 45.460938 45.296875 45.582031 45.417969 45.726562 45.269531 C 45.875 45.121094 45.875 44.878906 45.726562 44.730469 C 45.582031 44.582031 45.460938 44.703125 45.460938 45 M 22.058594 46.488281 C 22.1875 47.597656 22.042969 48.113281 21.496094 48.515625 C 20.882812 48.964844 20.871094 49.054688 21.402344 49.054688 C 21.753906 49.054688 22.148438 48.765625 22.285156 48.414062 C 22.640625 47.480469 22.582031 45 22.207031 45 C 22.03125 45 21.964844 45.667969 22.058594 46.488281 M 24.941406 45.40625 C 24.941406 45.703125 25.0625 45.824219 25.210938 45.675781 C 25.359375 45.527344 25.359375 45.285156 25.210938 45.136719 C 25.0625 44.988281 24.941406 45.109375 24.941406 45.40625 M 42.90625 45.304688 C 42.804688 45.472656 43.136719 45.609375 43.648438 45.609375 C 44.160156 45.609375 44.496094 45.472656 44.390625 45.304688 C 44.289062 45.136719 43.957031 45 43.648438 45 C 43.34375 45 43.007812 45.136719 42.90625 45.304688 M 48.035156 45.46875 C 47.859375 45.757812 47.925781 45.828125 48.214844 45.648438 C 48.675781 45.359375 48.835938 45 48.5 45 C 48.402344 45 48.195312 45.210938 48.035156 45.46875 M 49.28125 45.40625 C 49.417969 45.628906 49.621094 45.8125 49.730469 45.8125 C 49.84375 45.8125 49.820312 45.628906 49.683594 45.40625 C 49.546875 45.183594 49.34375 45 49.234375 45 C 49.125 45 49.144531 45.183594 49.28125 45.40625 M 20.25 45.675781 C 20.398438 45.824219 20.636719 45.824219 20.785156 45.675781 C 20.933594 45.527344 20.8125 45.40625 20.515625 45.40625 C 20.222656 45.40625 20.101562 45.527344 20.25 45.675781 M 18.707031 46.214844 C 18.84375 46.4375 19.046875 46.621094 19.15625 46.621094 C 19.265625 46.621094 19.246094 46.4375 19.109375 46.214844 C 18.972656 45.992188 18.769531 45.8125 18.660156 45.8125 C 18.546875 45.8125 18.570312 45.992188 18.707031 46.214844 M 46.328125 46.621094 C 46.328125 47.179688 46.417969 47.40625 46.53125 47.128906 C 46.640625 46.851562 46.640625 46.394531 46.53125 46.113281 C 46.417969 45.835938 46.328125 46.0625 46.328125 46.621094 M 51.15625 46.621094 C 51.15625 47.179688 51.246094 47.40625 51.359375 47.128906 C 51.46875 46.851562 51.46875 46.394531 51.359375 46.113281 C 51.246094 45.835938 51.15625 46.0625 51.15625 46.621094 M 47.503906 46.859375 C 47.523438 47.332031 47.617188 47.425781 47.746094 47.101562 C 47.863281 46.808594 47.847656 46.460938 47.714844 46.324219 C 47.582031 46.191406 47.484375 46.429688 47.503906 46.859375 M 49.917969 46.859375 C 49.9375 47.332031 50.03125 47.425781 50.160156 47.101562 C 50.277344 46.808594 50.261719 46.460938 50.128906 46.324219 C 49.996094 46.191406 49.898438 46.429688 49.917969 46.859375 M 18.183594 47.636719 C 18.191406 48.304688 18.28125 48.527344 18.382812 48.132812 C 18.484375 47.738281 18.476562 47.191406 18.367188 46.917969 C 18.257812 46.644531 18.175781 46.964844 18.183594 47.636719 M 29.042969 47.636719 C 29.050781 48.304688 29.140625 48.527344 29.246094 48.132812 C 29.347656 47.738281 29.339844 47.191406 29.230469 46.917969 C 29.121094 46.644531 29.035156 46.964844 29.042969 47.636719 M 41.4375 47.027344 C 41.4375 47.324219 41.558594 47.445312 41.707031 47.296875 C 41.851562 47.148438 41.851562 46.90625 41.707031 46.757812 C 41.558594 46.609375 41.4375 46.730469 41.4375 47.027344 M 45.628906 47.582031 C 45.832031 48.214844 45.707031 48.308594 44.851562 48.144531 C 44.289062 48.035156 43.734375 48.105469 43.617188 48.296875 C 43.496094 48.492188 44.136719 48.648438 45.035156 48.648438 C 45.933594 48.648438 46.757812 48.648438 46.867188 48.648438 C 46.976562 48.648438 47.070312 48.511719 47.070312 48.34375 C 47.070312 48.175781 46.882812 48.039062 46.652344 48.039062 C 46.421875 48.039062 46.042969 47.765625 45.808594 47.433594 C 45.460938 46.933594 45.425781 46.960938 45.628906 47.582031 M 32.183594 47.835938 C 32.183594 48.136719 32.304688 48.257812 32.453125 48.109375 C 32.597656 47.960938 32.597656 47.714844 32.453125 47.566406 C 32.304688 47.417969 32.183594 47.539062 32.183594 47.835938 M 19.914062 48.242188 C 20.050781 48.464844 20.253906 48.648438 20.363281 48.648438 C 20.472656 48.648438 20.453125 48.464844 20.316406 48.242188 C 20.179688 48.019531 19.976562 47.835938 19.867188 47.835938 C 19.753906 47.835938 19.777344 48.019531 19.914062 48.242188 M 26.878906 48.113281 C 27.167969 48.230469 27.515625 48.21875 27.648438 48.082031 C 27.78125 47.949219 27.546875 47.851562 27.121094 47.871094 C 26.652344 47.890625 26.558594 47.984375 26.878906 48.113281 M 30.398438 48.457031 C 29.765625 48.941406 29.738281 49.054688 30.253906 49.054688 C 30.605469 49.054688 30.996094 48.78125 31.121094 48.445312 C 31.402344 47.710938 31.378906 47.710938 30.398438 48.457031 M 50.449219 48.304688 C 50.273438 48.597656 50.339844 48.664062 50.628906 48.484375 C 51.089844 48.195312 51.25 47.835938 50.914062 47.835938 C 50.816406 47.835938 50.609375 48.046875 50.449219 48.304688 M 23.871094 48.511719 C 24.015625 48.660156 24.257812 48.660156 24.40625 48.511719 C 24.554688 48.363281 24.433594 48.242188 24.136719 48.242188 C 23.84375 48.242188 23.722656 48.363281 23.871094 48.511719 M 25.105469 48.710938 C 24.925781 49 24.996094 49.070312 25.28125 48.890625 C 25.539062 48.730469 25.746094 48.519531 25.746094 48.421875 C 25.746094 48.082031 25.390625 48.242188 25.105469 48.710938 M 37.039062 48.820312 C 36.648438 49.292969 36.710938 49.355469 37.386719 49.179688 C 37.839844 49.058594 38.109375 48.800781 37.988281 48.601562 C 37.695312 48.121094 37.59375 48.144531 37.039062 48.820312 M 40.027344 48.648438 C 40.164062 48.871094 40.367188 49.054688 40.476562 49.054688 C 40.589844 49.054688 40.566406 48.871094 40.429688 48.648438 C 40.292969 48.425781 40.09375 48.242188 39.980469 48.242188 C 39.871094 48.242188 39.890625 48.425781 40.027344 48.648438 M 15.550781 49.148438 C 15.292969 49.3125 16.339844 49.449219 17.867188 49.453125 C 19.398438 49.457031 20.542969 49.351562 20.410156 49.21875 C 20.054688 48.859375 16.085938 48.804688 15.550781 49.148438 M 27.652344 49.105469 C 27.925781 49.382812 28.25 49.507812 28.371094 49.382812 C 28.496094 49.257812 28.273438 49.03125 27.875 48.878906 C 27.304688 48.65625 27.257812 48.703125 27.652344 49.105469 M 33.523438 49.324219 C 33.523438 49.6875 34.003906 49.84375 34.964844 49.804688 C 36.191406 49.753906 36.242188 49.71875 35.292969 49.574219 C 34.683594 49.480469 34.265625 49.265625 34.371094 49.09375 C 34.476562 48.921875 34.328125 48.785156 34.042969 48.785156 C 33.757812 48.785156 33.523438 49.027344 33.523438 49.324219 M 48.277344 49.054688 C 48.277344 49.5625 48.703125 49.5625 49.484375 49.054688 C 49.972656 48.734375 49.914062 48.660156 49.179688 48.65625 C 48.683594 48.652344 48.277344 48.832031 48.277344 49.054688 M 51.292969 50.269531 C 51.429688 50.492188 51.632812 50.675781 51.742188 50.675781 C 51.851562 50.675781 51.832031 50.492188 51.695312 50.269531 C 51.558594 50.046875 51.355469 49.863281 51.246094 49.863281 C 51.136719 49.863281 51.15625 50.046875 51.292969 50.269531 M 47.632812 50.738281 C 47.457031 51.027344 47.523438 51.097656 47.8125 50.917969 C 48.273438 50.628906 48.433594 50.269531 48.097656 50.269531 C 48 50.269531 47.792969 50.480469 47.632812 50.738281 M 50.085938 51.488281 C 50.085938 52.113281 50.222656 52.539062 50.386719 52.4375 C 50.554688 52.335938 50.691406 51.90625 50.691406 51.488281 C 50.691406 51.066406 50.554688 50.640625 50.386719 50.535156 C 50.222656 50.433594 50.085938 50.859375 50.085938 51.488281 M 47.671875 52.296875 C 47.808594 52.519531 48.011719 52.703125 48.121094 52.703125 C 48.234375 52.703125 48.210938 52.519531 48.074219 52.296875 C 47.9375 52.074219 47.734375 51.890625 47.625 51.890625 C 47.515625 51.890625 47.535156 52.074219 47.671875 52.296875 M 46.464844 52.703125 C 46.601562 52.925781 46.804688 53.109375 46.914062 53.109375 C 47.027344 53.109375 47.003906 52.925781 46.867188 52.703125 C 46.730469 52.480469 46.527344 52.296875 46.417969 52.296875 C 46.308594 52.296875 46.328125 52.480469 46.464844 52.703125 M 51.253906 52.765625 C 51.078125 53.054688 51.144531 53.125 51.433594 52.945312 C 51.6875 52.785156 51.898438 52.574219 51.898438 52.476562 C 51.898438 52.136719 51.542969 52.296875 51.253906 52.765625 M 47.605469 53.378906 C 47.753906 53.527344 47.996094 53.527344 48.140625 53.378906 C 48.289062 53.230469 48.167969 53.109375 47.875 53.109375 C 47.578125 53.109375 47.457031 53.230469 47.605469 53.378906 M 50.019531 53.378906 C 50.167969 53.527344 50.40625 53.527344 50.554688 53.378906 C 50.703125 53.230469 50.582031 53.109375 50.289062 53.109375 C 49.992188 53.109375 49.871094 53.230469 50.019531 53.378906 "/>
<path style=" stroke:none;fill-rule:evenodd;fill:rgb(6.666667%,45.490196%,63.529412%);fill-opacity:1;" d="M 16.191406 9.007812 C 14.910156 9.632812 15.011719 11.566406 16.445312 13.847656 C 18.039062 16.378906 22.78125 21.027344 27.035156 24.226562 C 30.507812 26.839844 30.566406 26.910156 29.964844 27.839844 C 29.347656 28.785156 29.347656 28.785156 34.1875 28.785156 C 36.847656 28.785156 39.023438 28.695312 39.023438 28.589844 C 39.023438 28.339844 35.804688 20.195312 35.53125 19.746094 C 35.417969 19.558594 34.914062 19.972656 34.410156 20.65625 C 33.496094 21.90625 33.496094 21.90625 30.324219 19.621094 C 24.003906 15.066406 20.097656 11.007812 20.648438 9.5625 C 21.015625 8.605469 17.835938 8.210938 16.191406 9.007812 M 33.949219 41.875 C 34.554688 42.324219 34.640625 42.925781 34.527344 45.929688 C 34.398438 49.460938 34.398438 49.460938 35.601562 49.429688 C 36.265625 49.410156 36.585938 49.304688 36.308594 49.191406 C 35.953125 49.046875 35.804688 47.84375 35.804688 45.167969 C 35.804688 41.351562 35.804688 41.351562 34.519531 41.351562 C 33.371094 41.351562 33.3125 41.40625 33.949219 41.875 M 31.480469 42.046875 C 30.667969 42.339844 30.902344 43.378906 31.78125 43.378906 C 32.222656 43.378906 32.585938 43.117188 32.585938 42.792969 C 32.585938 42.089844 32.160156 41.800781 31.480469 42.046875 M 38.265625 42.304688 C 37.777344 42.898438 38.054688 43.378906 38.890625 43.378906 C 39.488281 43.378906 39.625 42.332031 39.070312 41.988281 C 38.871094 41.867188 38.511719 42.007812 38.265625 42.304688 M 16.59375 43.074219 C 17.488281 43.761719 17.703125 48.144531 16.871094 48.671875 C 16.472656 48.925781 16.792969 49.027344 17.902344 49 C 18.789062 48.976562 19.195312 48.875 18.808594 48.773438 C 18.261719 48.628906 18.105469 48.167969 18.117188 46.695312 L 18.136719 44.796875 L 19.199219 46.578125 L 20.265625 48.363281 L 21.074219 46.679688 C 22.15625 44.429688 22.671875 44.558594 22.4375 47.027344 C 22.246094 49.054688 22.246094 49.054688 23.695312 49.007812 C 24.492188 48.980469 24.828125 48.875 24.441406 48.773438 C 23.410156 48.503906 23.410156 43.609375 24.441406 43.003906 C 25.023438 42.660156 24.925781 42.589844 23.863281 42.578125 C 22.78125 42.570312 22.4375 42.820312 21.675781 44.1875 C 21.179688 45.082031 20.652344 45.8125 20.503906 45.8125 C 20.359375 45.8125 19.910156 45.082031 19.511719 44.1875 C 18.863281 42.742188 18.632812 42.566406 17.363281 42.566406 C 16.140625 42.566406 16.03125 42.640625 16.59375 43.074219 M 50.03125 43.988281 C 49.902344 44.320312 49.445312 44.59375 49.011719 44.59375 C 47.570312 44.59375 46.667969 45.371094 46.667969 46.613281 C 46.667969 47.257812 46.851562 47.90625 47.074219 48.042969 C 47.300781 48.183594 47.351562 48.515625 47.1875 48.777344 C 47.023438 49.042969 46.875 49.4375 46.855469 49.664062 C 46.835938 49.886719 46.667969 50.410156 46.480469 50.832031 C 46.015625 51.871094 46.679688 52.820312 48.171875 53.25 C 49.71875 53.699219 51.644531 52.839844 51.820312 51.625 C 51.964844 50.605469 50.570312 49.460938 49.191406 49.460938 C 48.6875 49.460938 48.277344 49.277344 48.277344 49.054688 C 48.277344 48.832031 48.691406 48.648438 49.199219 48.648438 C 49.710938 48.648438 50.34375 48.429688 50.609375 48.164062 C 51.195312 47.574219 51.25 45.550781 50.691406 45.203125 C 50.46875 45.066406 50.289062 44.757812 50.289062 44.519531 C 50.289062 44.238281 50.480469 44.253906 50.855469 44.566406 C 51.484375 45.09375 52.128906 44.492188 51.695312 43.785156 C 51.320312 43.171875 50.292969 43.296875 50.03125 43.988281 M 25.496094 44.785156 C 25.371094 45.109375 25.363281 45.613281 25.480469 45.898438 C 25.613281 46.222656 25.796875 46.066406 25.972656 45.484375 C 26.34375 44.25 27.90625 44.414062 28.089844 45.710938 C 28.164062 46.257812 28.003906 46.625 27.6875 46.628906 C 27.289062 46.632812 27.277344 46.710938 27.636719 46.941406 C 27.929688 47.128906 27.984375 47.46875 27.777344 47.804688 C 27.3125 48.566406 25.992188 48.023438 26.308594 47.195312 C 26.476562 46.75 26.34375 46.601562 25.851562 46.699219 C 24.976562 46.867188 24.707031 48.066406 25.476562 48.363281 C 26.652344 48.816406 29.984375 49.121094 29.410156 48.71875 C 29.023438 48.449219 28.929688 47.921875 29.105469 47.035156 C 29.480469 45.144531 28.816406 44.1875 27.128906 44.1875 C 26.261719 44.1875 25.636719 44.417969 25.496094 44.785156 M 40.832031 44.613281 C 40.21875 44.867188 40.183594 44.949219 40.6875 44.972656 C 41.476562 45.003906 41.980469 47.089844 41.300781 47.527344 C 41.027344 47.699219 41.253906 47.828125 41.84375 47.832031 C 42.714844 47.835938 42.851562 47.660156 42.847656 46.519531 C 42.84375 45.472656 43.007812 45.203125 43.648438 45.203125 C 44.3125 45.203125 44.453125 45.472656 44.453125 46.722656 C 44.453125 47.804688 44.628906 48.242188 45.058594 48.242188 C 45.746094 48.242188 46.058594 45.957031 45.496094 45.050781 C 45.101562 44.414062 42.027344 44.125 40.832031 44.613281 M 31.179688 46.824219 C 31.179688 49.035156 31.1875 49.054688 32.386719 49.042969 C 33.410156 49.03125 33.496094 48.953125 32.964844 48.535156 C 32.511719 48.179688 32.382812 47.554688 32.503906 46.316406 C 32.644531 44.847656 32.5625 44.59375 31.925781 44.597656 C 31.289062 44.597656 31.179688 44.925781 31.179688 46.824219 M 38.066406 46.722656 C 38.113281 48.753906 38.171875 48.859375 39.273438 48.984375 C 40.207031 49.089844 40.335938 49.015625 39.929688 48.597656 C 39.652344 48.3125 39.425781 47.296875 39.425781 46.335938 C 39.425781 44.949219 39.28125 44.59375 38.722656 44.59375 C 38.132812 44.59375 38.023438 44.945312 38.066406 46.722656 M 47.867188 45.828125 C 46.921875 47.601562 48.652344 49.132812 49.894531 47.621094 C 50.285156 47.148438 50.300781 46.765625 49.953125 46 C 49.402344 44.785156 48.460938 44.707031 47.867188 45.828125 M 47.625 50.851562 C 47.167969 52.054688 47.785156 52.761719 49.179688 52.628906 C 50.273438 52.519531 50.488281 52.335938 50.488281 51.488281 C 50.488281 50.640625 50.273438 50.453125 49.179688 50.34375 C 48.277344 50.257812 47.792969 50.414062 47.625 50.851562 "/>
<path style=" stroke:none;fill-rule:evenodd;fill:rgb(86.27451%,29.019608%,29.019608%);fill-opacity:1;" d="M 30.707031 7.566406 C 30.855469 7.714844 31.097656 7.714844 31.246094 7.566406 C 31.394531 7.417969 31.273438 7.296875 30.976562 7.296875 C 30.683594 7.296875 30.5625 7.417969 30.707031 7.566406 M 34.328125 7.566406 C 34.476562 7.714844 34.71875 7.714844 34.867188 7.566406 C 35.011719 7.417969 34.894531 7.296875 34.597656 7.296875 C 34.304688 7.296875 34.183594 7.417969 34.328125 7.566406 M 41.636719 10.539062 C 41.773438 10.761719 41.976562 10.945312 42.085938 10.945312 C 42.199219 10.945312 42.175781 10.761719 42.039062 10.539062 C 41.902344 10.316406 41.699219 10.136719 41.589844 10.136719 C 41.480469 10.136719 41.5 10.316406 41.636719 10.539062 M 44.050781 12.972656 C 44.1875 13.195312 44.390625 13.378906 44.5 13.378906 C 44.613281 13.378906 44.589844 13.195312 44.453125 12.972656 C 44.316406 12.75 44.113281 12.566406 44.003906 12.566406 C 43.894531 12.566406 43.914062 12.75 44.050781 12.972656 M 47.101562 21.316406 C 47.121094 21.789062 47.214844 21.886719 47.34375 21.5625 C 47.460938 21.269531 47.445312 20.921875 47.3125 20.785156 C 47.179688 20.652344 47.082031 20.890625 47.101562 21.316406 M 47.101562 23.75 C 47.121094 24.222656 47.214844 24.316406 47.34375 23.996094 C 47.460938 23.703125 47.445312 23.351562 47.3125 23.21875 C 47.179688 23.082031 47.082031 23.324219 47.101562 23.75 M 48.878906 27.972656 C 48.742188 28.195312 48.921875 28.378906 49.28125 28.378906 C 49.640625 28.378906 49.820312 28.195312 49.683594 27.972656 C 49.546875 27.75 49.367188 27.566406 49.28125 27.566406 C 49.195312 27.566406 49.015625 27.75 48.878906 27.972656 M 16.699219 30.839844 C 17.21875 32.527344 19.675781 35.957031 21.203125 37.132812 C 22.007812 37.75 23.675781 38.671875 24.910156 39.183594 C 29.046875 40.898438 35.527344 40.210938 39.046875 37.683594 C 40.25 36.824219 40.25 36.824219 41.648438 37.65625 C 42.417969 38.113281 43.046875 38.40625 43.046875 38.304688 C 43.046875 38.207031 42.296875 36.296875 41.382812 34.0625 L 39.714844 30 L 35.851562 30.027344 C 33.722656 30.042969 31.621094 30.199219 31.179688 30.371094 C 30.449219 30.660156 30.492188 30.746094 31.683594 31.367188 C 32.402344 31.742188 32.988281 32.132812 32.988281 32.234375 C 32.988281 32.335938 32.039062 32.921875 30.875 33.53125 C 29.085938 34.476562 28.273438 34.648438 25.546875 34.648438 C 21.804688 34.648438 19.859375 33.835938 17.714844 31.371094 C 16.613281 30.109375 16.445312 30.019531 16.699219 30.839844 "/>
<path style=" stroke:none;fill-rule:evenodd;fill:rgb(0%,75.686275%,52.156863%);fill-opacity:1;" d="M 45.15625 29.492188 C 43.109375 29.566406 41.433594 29.753906 41.429688 29.914062 C 41.425781 30.074219 42.183594 31.898438 43.109375 33.972656 C 44.789062 37.742188 44.789062 37.742188 45.539062 36.550781 C 46.289062 35.355469 46.289062 35.355469 48.1875 35.941406 C 50.765625 36.734375 54.015625 36.828125 54.851562 36.132812 C 55.765625 35.371094 55.6875 33.859375 54.632812 31.96875 C 54.015625 30.863281 53.558594 30.457031 53.125 30.625 C 52.375 30.921875 52.390625 30.917969 50.945312 30.859375 C 50 30.820312 49.828125 30.664062 50 30 C 50.152344 29.414062 50.027344 29.210938 49.546875 29.273438 C 49.179688 29.320312 47.203125 29.417969 45.15625 29.492188 "/>
<path style=" stroke:none;fill-rule:evenodd;fill:rgb(81.568627%,14.901961%,54.509804%);fill-opacity:1;" d="M 31.984375 7.65625 C 32.425781 7.863281 33.367188 8.25 34.078125 8.519531 C 37.398438 9.765625 40.230469 14.640625 40.230469 19.101562 C 40.230469 21.328125 39.792969 21.792969 38.53125 20.902344 C 38.039062 20.554688 37.507812 20.269531 37.351562 20.269531 C 37.195312 20.269531 37.902344 22.09375 38.917969 24.324219 L 40.773438 28.378906 L 44.699219 28.378906 C 48.714844 28.378906 49.917969 27.933594 48.125 27.109375 C 47.160156 26.667969 47.121094 26.507812 47.136719 22.953125 C 47.152344 18.886719 46.394531 16.199219 44.410156 13.316406 C 43.144531 11.472656 40.328125 9.324219 37.976562 8.402344 C 36.183594 7.703125 30.578125 7.003906 31.984375 7.65625 "/>
</g>
</svg>
