<svg xmlns="http://www.w3.org/2000/svg" width="174" height="148" viewBox="0 0 174 148" version="1.1"><path d="M -0 74.005 L -0 148.011 87.250 147.755 L 174.500 147.500 174.756 73.750 L 175.013 0 87.506 0 L 0 0 -0 74.005 M 0.475 74.500 C 0.475 115.200, 0.599 131.704, 0.750 111.176 C 0.901 90.648, 0.901 57.348, 0.750 37.176 C 0.598 17.004, 0.475 33.800, 0.475 74.500 M 80.838 20.074 C 91.089 23.389, 99 33.302, 99 42.833 C 99 45.102, 98.853 45.183, 97.250 43.796 C 96.287 42.964, 92.234 40.366, 88.243 38.023 C 80.365 33.400, 79.523 33.393, 72.652 37.900 C 69.818 39.759, 69.818 39.759, 77.472 43.985 C 84.673 47.959, 85.204 48.103, 86.443 46.409 C 87.687 44.708, 88.031 44.784, 92.628 47.774 C 96.962 50.593, 97.570 50.751, 98.177 49.220 C 98.674 47.968, 98.879 48.271, 98.930 50.332 C 99 53.163, 99 53.163, 95.500 51 C 93.575 49.810, 92 49.251, 92 49.756 C 92 50.262, 94.009 55.136, 96.465 60.588 C 101.549 71.877, 98.929 70.640, 116.750 70.169 C 125.500 69.938, 125.500 69.938, 121.615 67.550 C 117.729 65.162, 117.729 65.162, 117.582 55.331 C 117.396 42.819, 114.448 35.605, 106.417 28.010 C 99.220 21.203, 93.582 18.892, 83 18.411 L 74.500 18.025 80.838 20.074 M 66.703 21.386 C 64.614 22.162, 61.117 23.980, 58.932 25.426 C 54.167 28.579, 54.441 29.529, 61.935 35.848 C 67.046 40.158, 67.046 40.158, 71.728 37.057 C 77.190 33.439, 84.696 31, 90.369 31 C 94.374 31, 94.374 31, 91.437 27.908 C 85.275 21.422, 74.355 18.543, 66.703 21.386 M 38.964 23.036 C 37.375 24.625, 36.995 25.857, 37.484 27.837 C 39.291 35.156, 51.610 48.583, 67.319 60.356 C 72.422 64.181, 74.936 66.696, 74.566 67.606 C 72.513 72.662, 72.088 72.371, 80.482 71.661 C 84.783 71.297, 90.449 71, 93.073 71 L 97.843 71 94.323 62.250 C 87.251 44.674, 88.194 46.065, 85.854 49.762 C 84.726 51.543, 83.417 53, 82.945 53 C 82.472 53, 77.637 49.649, 72.199 45.553 C 60.154 36.479, 50.784 26.702, 51.205 23.644 C 51.470 21.720, 50.966 21.469, 46.301 21.199 C 42.073 20.955, 40.701 21.299, 38.964 23.036 M 52.015 23.750 C 52.024 24.163, 52.425 25.122, 52.906 25.883 C 53.647 27.053, 54.106 27.039, 55.885 25.793 C 57.041 24.983, 57.690 24.023, 57.327 23.660 C 56.417 22.751, 51.996 22.825, 52.015 23.750 M 43.056 43.895 C 41.310 47.158, 38.999 57.187, 39.010 61.460 C 39.023 66.823, 42.834 74.769, 47.256 78.651 C 50.469 81.472, 57.579 84.754, 58.494 83.839 C 58.693 83.641, 58.002 81.008, 56.960 77.989 C 54.705 71.455, 54.501 64.976, 56.357 58.808 C 57.715 54.298, 57.715 54.298, 50.905 48.126 C 44.618 42.428, 44.015 42.103, 43.056 43.895 M 118.638 61.500 C 118.287 62.415, 118 63.324, 118 63.519 C 118 63.715, 120.250 65.100, 123 66.597 C 128.020 69.329, 128.856 70.353, 127 71.500 C 125.014 72.727, 125.988 75, 128.500 75 C 132.610 75, 131.513 71.945, 125.138 65.637 C 120.412 60.960, 119.153 60.159, 118.638 61.500 M 40.473 74 C 42.074 79.310, 46.618 86.374, 50.804 90.059 C 63.120 100.900, 78.618 102.544, 94.157 94.658 C 100.813 91.279, 100.813 91.279, 103.907 93.238 C 105.608 94.315, 107 94.770, 107 94.249 C 107 92.723, 99.378 74.958, 98.396 74.196 C 97.252 73.307, 74.997 73.894, 75.010 74.812 C 75.015 75.191, 76.703 76.476, 78.760 77.670 C 82.500 79.840, 82.500 79.840, 76.500 82.621 C 64.091 88.372, 50.552 85.665, 43.119 75.945 C 40.607 72.661, 39.916 72.153, 40.473 74 M 111.250 72.744 C 106.713 72.929, 103 73.460, 103 73.923 C 103 74.937, 110.440 91.773, 111.242 92.575 C 111.552 92.885, 112.566 91.850, 113.497 90.275 C 115.188 87.411, 115.188 87.411, 121.844 89.148 C 130.233 91.337, 132.991 91.395, 135.777 89.443 C 138.532 87.514, 138.622 84.139, 136.052 79.102 C 134.107 75.289, 134.096 75.284, 128.898 75.784 C 123.965 76.258, 123.722 76.172, 124.253 74.142 C 124.729 72.319, 124.417 72.030, 122.156 72.204 C 120.695 72.315, 115.787 72.559, 111.250 72.744 M 83.573 101.877 C 81.927 102.538, 81.877 102.739, 83.232 103.259 C 84.386 103.702, 85.007 105.900, 85.518 111.351 C 86.325 119.965, 85.836 121.518, 82.822 119.904 C 81.060 118.962, 80.832 118.098, 81.235 113.902 C 81.706 109, 81.706 109, 77.603 109.032 C 74.174 109.058, 73.760 109.264, 75.084 110.282 C 78.683 113.049, 78.177 120, 74.378 120 C 73.415 120, 73 118.666, 73 115.571 C 73 108.702, 69.151 106.105, 64.155 109.604 C 62.769 110.574, 62.096 111.809, 62.450 112.731 C 62.772 113.568, 62.522 114.871, 61.895 115.627 C 61.037 116.660, 61.063 117.371, 62 118.500 C 63.343 120.118, 62.313 120.485, 60.195 119.142 C 58.411 118.010, 59.670 107.944, 61.806 106.250 C 63.197 105.147, 63.134 105, 61.273 105 C 60.113 105, 58.485 104.740, 57.657 104.422 C 56.631 104.028, 55.407 105.144, 53.825 107.914 C 52.546 110.153, 51.246 111.988, 50.935 111.992 C 50.625 111.997, 49.619 110.425, 48.701 108.500 C 47.130 105.204, 46.754 105.004, 42.266 105.068 C 38.249 105.125, 37.836 105.298, 39.636 106.169 C 41.009 106.834, 41.987 108.506, 42.375 110.852 C 43.540 117.899, 43.186 119.540, 40.250 120.701 C 37.870 121.641, 38.441 121.787, 44.500 121.787 C 50.559 121.787, 51.130 121.641, 48.750 120.701 C 47.237 120.103, 45.994 118.913, 45.986 118.057 C 45.979 117.201, 45.726 115.375, 45.425 114 C 45.028 112.188, 45.629 112.701, 47.609 115.866 L 50.341 120.233 52.625 115.866 C 54.910 111.500, 54.910 111.500, 54.955 115.200 C 54.985 117.670, 54.418 119.271, 53.250 120.015 C 51.916 120.864, 53.429 121.004, 59.624 120.605 C 64.093 120.317, 68.055 120.389, 68.430 120.763 C 68.805 121.138, 72.514 121.303, 76.672 121.129 C 82.397 120.890, 84.051 121.108, 83.485 122.024 C 82.922 122.936, 83.821 123.077, 87.118 122.595 C 102.237 120.384, 101.606 120.547, 99.614 119.376 C 98.073 118.471, 97.854 117.591, 98.421 114.572 C 98.934 111.833, 99.553 110.959, 100.807 111.198 C 102.901 111.597, 103.661 115.966, 101.837 117.122 C 100.977 117.667, 101.927 117.969, 104.500 117.969 C 107.098 117.969, 108.027 117.670, 107.152 117.115 C 105.175 115.862, 106.167 112.500, 108.514 112.500 C 111.209 112.500, 111.775 116.696, 109.330 118.549 C 107.681 119.799, 107.940 119.940, 111.950 119.968 C 115.411 119.993, 116.133 119.733, 115.200 118.800 C 114.540 118.140, 114 115.938, 114 113.907 C 114 111.530, 113.460 110.007, 112.485 109.633 C 111.652 109.313, 106.416 109.067, 100.850 109.087 C 91.579 109.120, 90.909 109.248, 92.865 110.618 C 95.727 112.623, 95.783 118.030, 92.959 119.793 C 89.445 121.988, 88.765 120.355, 89.144 110.626 C 89.477 102.100, 89.368 101.487, 87.500 101.302 C 86.400 101.193, 84.633 101.451, 83.573 101.877 M 77.380 104.452 C 76.683 106.267, 77.695 108, 79.452 108 C 80.982 108, 81.910 106.085, 81.269 104.250 C 80.672 102.537, 78.063 102.673, 77.380 104.452 M 94.364 104.493 C 94.018 105.396, 94.214 106.614, 94.800 107.200 C 96.324 108.724, 99.210 107.331, 98.812 105.265 C 98.369 102.963, 95.165 102.407, 94.364 104.493 M 124 107.875 C 124 108.356, 122.704 109.009, 121.121 109.326 C 116.958 110.158, 114.700 112.769, 115.428 115.908 C 116.425 120.205, 116.657 124, 115.924 124 C 115.544 124, 114.989 124.933, 114.691 126.074 C 113.876 129.192, 117.249 132, 121.809 132 C 126.944 132, 129.259 130.172, 128.836 126.451 C 128.567 124.090, 127.808 123.276, 125.044 122.383 C 121.881 121.361, 121.775 121.206, 123.795 120.565 C 126.540 119.694, 128.354 116.463, 127.638 113.723 C 127.308 112.462, 127.724 111.191, 128.701 110.477 C 129.583 109.831, 129.985 108.785, 129.594 108.152 C 128.767 106.814, 124 106.578, 124 107.875 M 65.721 111.959 C 65.316 113.506, 65.666 114, 67.167 114 C 68.478 114, 69.037 113.437, 68.823 112.333 C 68.343 109.858, 66.334 109.616, 65.721 111.959 M 120.056 112.433 C 118.210 114.657, 119.125 118.500, 121.500 118.500 C 122.907 118.500, 123.589 117.733, 123.801 115.914 C 124.188 112.581, 121.786 110.348, 120.056 112.433 M 65.500 117 C 65.160 117.550, 65.809 118, 66.941 118 C 68.073 118, 69 117.550, 69 117 C 69 116.450, 68.352 116, 67.559 116 C 66.766 116, 65.840 116.450, 65.500 117 M 119.040 125.452 C 117.993 126.713, 117.993 127.287, 119.040 128.548 C 121.045 130.964, 124.500 129.984, 124.500 127 C 124.500 124.016, 121.045 123.036, 119.040 125.452" stroke="none" fill="#ffffff" fill-rule="evenodd"/><path d="M 78.333 19.667 C 78.700 20.033, 79.300 20.033, 79.667 19.667 C 80.033 19.300, 79.733 19, 79 19 C 78.267 19, 77.967 19.300, 78.333 19.667 M 66.703 21.437 C 60.383 23.700, 54.966 27.748, 55.699 29.659 C 56.176 30.900, 55.976 31.120, 54.920 30.517 C 54.139 30.071, 55.279 31.572, 57.453 33.853 C 61.283 37.871, 63.529 39.547, 61 36.500 C 60.315 35.675, 60.182 35, 60.703 35 C 61.989 35, 66.154 39.513, 65.485 40.182 C 65.192 40.475, 65.750 41.320, 66.726 42.059 C 68.221 43.192, 68.309 43.189, 67.287 42.039 C 64.662 39.086, 81.389 31, 90.122 31 C 92.190 31, 94.206 30.438, 94.601 29.750 C 94.997 29.063, 94.942 28.844, 94.480 29.264 C 93.373 30.269, 87.888 24.990, 88.690 23.692 C 89.030 23.142, 88.823 22.991, 88.229 23.358 C 87.042 24.092, 81.843 22.073, 82.425 21.104 C 83.173 19.859, 70.349 20.131, 66.703 21.437 M 48.813 21.683 C 49.534 21.972, 50.397 21.936, 50.729 21.604 C 51.061 21.272, 50.471 21.036, 49.417 21.079 C 48.252 21.127, 48.015 21.364, 48.813 21.683 M 52.356 25.408 C 52.496 27.746, 52.579 27.770, 55.196 26.225 C 58.266 24.412, 57.982 23, 54.547 23 C 52.706 23, 52.242 23.510, 52.356 25.408 M 37.079 26.583 C 37.127 27.748, 37.364 27.985, 37.683 27.188 C 37.972 26.466, 37.936 25.603, 37.604 25.271 C 37.272 24.939, 37.036 25.529, 37.079 26.583 M 57.500 33 C 58.495 34.100, 59.535 35, 59.810 35 C 60.085 35, 59.495 34.100, 58.500 33 C 57.505 31.900, 56.465 31, 56.190 31 C 55.915 31, 56.505 31.900, 57.500 33 M 75 36.596 C 72.525 38.010, 70.359 39.308, 70.188 39.479 C 70.016 39.651, 73.307 41.685, 77.501 44 C 84.626 47.933, 85.211 48.093, 86.423 46.437 C 87.652 44.755, 87.908 44.780, 91.366 46.917 C 93.371 48.157, 94.818 49.486, 94.580 49.871 C 94.342 50.256, 95.014 50.571, 96.073 50.571 C 97.133 50.571, 98.032 49.880, 98.070 49.036 C 98.119 47.965, 98.401 48.106, 99 49.500 C 99.631 50.969, 99.859 50.173, 99.859 46.500 C 99.859 43.200, 99.602 42.157, 99.102 43.434 C 98.633 44.632, 98.089 44.953, 97.672 44.278 C 96.880 42.997, 81.745 33.994, 80.412 34.012 C 79.910 34.019, 77.475 35.181, 75 36.596 M 45 40.500 C 46.292 41.875, 47.574 43, 47.849 43 C 48.124 43, 47.292 41.875, 46 40.500 C 44.708 39.125, 43.426 38, 43.151 38 C 42.876 38, 43.708 39.125, 45 40.500 M 43.106 43.802 C 41.308 47.162, 38.999 57.146, 39.022 61.460 C 39.034 63.682, 39.939 67.473, 41.033 69.884 C 42.665 73.481, 42.796 74.559, 41.761 75.884 C 40.671 77.281, 40.714 77.333, 42.080 76.268 C 43.393 75.245, 44.116 75.512, 46.344 77.838 C 47.820 79.378, 48.684 81.017, 48.264 81.480 C 47.844 81.942, 48 82.035, 48.612 81.687 C 49.224 81.338, 51.591 81.786, 53.873 82.682 C 56.155 83.578, 58.209 84.124, 58.438 83.895 C 58.667 83.666, 58.002 81.008, 56.960 77.989 C 54.815 71.775, 54.508 65.313, 56.087 59.625 C 57.961 52.875, 57.905 52.257, 55.203 49.852 C 53.750 48.558, 53.165 48.288, 53.903 49.250 C 56.515 52.655, 53.505 50.937, 48.882 46.384 C 44.426 41.995, 44.141 41.867, 43.106 43.802 M 70.500 45 C 70.840 45.550, 71.343 46, 71.618 46 C 71.893 46, 71.840 45.550, 71.500 45 C 71.160 44.450, 70.657 44, 70.382 44 C 70.107 44, 70.160 44.450, 70.500 45 M 74.500 48 C 74.840 48.550, 75.343 49, 75.618 49 C 75.893 49, 75.840 48.550, 75.500 48 C 75.160 47.450, 74.657 47, 74.382 47 C 74.107 47, 74.160 47.450, 74.500 48 M 87.500 48 C 87.840 48.550, 88.343 49, 88.618 49 C 88.893 49, 88.840 48.550, 88.500 48 C 88.160 47.450, 87.657 47, 87.382 47 C 87.107 47, 87.160 47.450, 87.500 48 M 85.405 50.155 C 84.962 50.870, 85.130 51.038, 85.845 50.595 C 86.480 50.203, 87 49.684, 87 49.441 C 87 48.607, 86.117 49.002, 85.405 50.155 M 117 50 C 117 50.733, 117.300 51.033, 117.667 50.667 C 118.033 50.300, 118.033 49.700, 117.667 49.333 C 117.300 48.967, 117 49.267, 117 50 M 55.500 52 C 55.840 52.550, 56.343 53, 56.618 53 C 56.893 53, 56.840 52.550, 56.500 52 C 56.160 51.450, 55.657 51, 55.382 51 C 55.107 51, 55.160 51.450, 55.500 52 M 61.500 56 C 61.840 56.550, 62.343 57, 62.618 57 C 62.893 57, 62.840 56.550, 62.500 56 C 62.160 55.450, 61.657 55, 61.382 55 C 61.107 55, 61.160 55.450, 61.500 56 M 66.500 60 C 66.840 60.550, 67.343 61, 67.618 61 C 67.893 61, 67.840 60.550, 67.500 60 C 67.160 59.450, 66.657 59, 66.382 59 C 66.107 59, 66.160 59.450, 66.500 60 M 117.406 61.332 C 117.733 62.339, 118 63.324, 118 63.519 C 118 63.715, 120.250 65.100, 123 66.597 C 128.020 69.329, 128.856 70.353, 127 71.500 C 125.014 72.727, 125.988 75, 128.500 75 C 132.632 75, 131.503 71.935, 125 65.500 C 121.700 62.234, 118.993 60.224, 118.985 61.031 C 118.971 62.304, 118.825 62.300, 117.890 61 C 116.993 59.752, 116.911 59.808, 117.406 61.332 M 73 64.378 C 73 64.585, 73.787 65.373, 74.750 66.128 C 76.336 67.371, 76.371 67.336, 75.128 65.750 C 73.821 64.084, 73 63.555, 73 64.378 M 100.899 70.299 C 101.365 70.765, 103.265 70.989, 105.123 70.798 C 108.417 70.459, 108.396 70.438, 104.276 69.951 C 101.953 69.677, 100.433 69.833, 100.899 70.299 M 75.250 71.716 C 76.763 71.945, 79.237 71.945, 80.750 71.716 C 82.263 71.487, 81.025 71.300, 78 71.300 C 74.975 71.300, 73.737 71.487, 75.250 71.716 M 40 73 C 40 73.733, 40.300 74.033, 40.667 73.667 C 41.033 73.300, 41.033 72.700, 40.667 72.333 C 40.300 71.967, 40 72.267, 40 73 M 119.333 72.667 C 119.700 73.033, 120.300 73.033, 120.667 72.667 C 121.033 72.300, 120.733 72, 120 72 C 119.267 72, 118.967 72.300, 119.333 72.667 M 96.333 73.667 C 96.700 74.033, 97.300 74.033, 97.667 73.667 C 98.033 73.300, 97.733 73, 97 73 C 96.267 73, 95.967 73.300, 96.333 73.667 M 75 74.906 C 75 75.405, 75.900 75.577, 77 75.290 C 78.100 75.002, 79 74.594, 79 74.383 C 79 74.173, 78.100 74, 77 74 C 75.900 74, 75 74.408, 75 74.906 M 46.500 86 C 46.840 86.550, 47.343 87, 47.618 87 C 47.893 87, 47.840 86.550, 47.500 86 C 47.160 85.450, 46.657 85, 46.382 85 C 46.107 85, 46.160 85.450, 46.500 86 M 67.333 85.667 C 67.700 86.033, 68.300 86.033, 68.667 85.667 C 69.033 85.300, 68.733 85, 68 85 C 67.267 85, 66.967 85.300, 67.333 85.667 M 73.762 99.707 C 75.006 99.946, 76.806 99.937, 77.762 99.687 C 78.718 99.437, 77.700 99.241, 75.500 99.252 C 73.300 99.263, 72.518 99.468, 73.762 99.707 M 86.691 101.648 C 88.256 101.988, 89.008 103.035, 89.322 105.312 C 89.745 108.386, 89.756 108.375, 89.631 105 C 89.519 102.016, 89.131 101.476, 87 101.336 C 84.913 101.199, 84.862 101.251, 86.691 101.648 M 84.951 107.276 C 85.438 111.396, 85.459 111.417, 85.798 108.123 C 85.989 106.265, 85.765 104.365, 85.299 103.899 C 84.833 103.433, 84.677 104.953, 84.951 107.276 M 94.405 104.155 C 93.962 104.870, 94.130 105.038, 94.845 104.595 C 95.998 103.883, 96.393 103, 95.559 103 C 95.316 103, 94.797 103.520, 94.405 104.155 M 97.751 105.157 C 98.236 107.011, 97.991 107.231, 96.014 106.714 C 94.370 106.284, 94.020 106.420, 94.789 107.189 C 95.381 107.781, 96.571 107.995, 97.433 107.664 C 99.138 107.010, 99.549 104.457, 98.093 103.558 C 97.595 103.249, 97.441 103.969, 97.751 105.157 M 55.507 104.989 C 55.157 105.555, 55.558 105.723, 56.448 105.382 C 58.180 104.717, 58.497 104, 57.059 104 C 56.541 104, 55.843 104.445, 55.507 104.989 M 39.750 106.220 C 41.152 106.897, 42.051 108.285, 42.136 109.903 C 42.272 112.500, 42.272 112.500, 42.731 110.056 C 43.185 107.640, 40.908 104.918, 38.559 105.068 C 37.976 105.105, 38.513 105.624, 39.750 106.220 M 59.394 107.416 C 59.095 108.194, 59.013 110.107, 59.210 111.666 C 59.504 113.979, 59.660 113.718, 60.061 110.250 C 60.567 105.877, 60.345 104.936, 59.394 107.416 M 53 109 C 52.411 110.100, 52.155 111, 52.430 111 C 52.705 111, 53.411 110.100, 54 109 C 54.589 107.900, 54.845 107, 54.570 107 C 54.295 107, 53.589 107.900, 53 109 M 78.813 107.683 C 79.534 107.972, 80.397 107.936, 80.729 107.604 C 81.061 107.272, 80.471 107.036, 79.417 107.079 C 78.252 107.127, 78.015 107.364, 78.813 107.683 M 128.429 109 C 128.429 110.295, 128.767 110.633, 129.414 109.986 C 130.062 109.338, 130.062 108.662, 129.414 108.014 C 128.767 107.367, 128.429 107.705, 128.429 109 M 66.750 108.662 C 67.438 108.940, 68.563 108.940, 69.250 108.662 C 69.938 108.385, 69.375 108.158, 68 108.158 C 66.625 108.158, 66.063 108.385, 66.750 108.662 M 75.133 110.307 C 76.032 110.990, 77.028 112.439, 77.347 113.525 C 77.682 114.662, 77.783 114.294, 77.585 112.657 C 77.280 110.134, 77.510 109.864, 79.621 110.268 C 80.929 110.518, 82 110.335, 82 109.861 C 82 109.388, 80.088 109.014, 77.750 109.032 C 74.150 109.059, 73.750 109.254, 75.133 110.307 M 91.074 109.274 C 91.309 109.435, 92.374 110.226, 93.442 111.033 C 94.656 111.950, 95.103 112.032, 94.633 111.250 C 94.129 110.412, 94.560 110, 95.941 110 C 97.389 110, 98.021 110.668, 98.070 112.250 C 98.135 114.309, 98.204 114.337, 98.895 112.575 C 99.310 111.516, 100.516 110.342, 101.575 109.967 C 102.677 109.576, 100.754 109.220, 97.074 109.134 C 93.540 109.050, 90.840 109.114, 91.074 109.274 M 106.813 109.683 C 107.534 109.972, 108.397 109.936, 108.729 109.604 C 109.061 109.272, 108.471 109.036, 107.417 109.079 C 106.252 109.127, 106.015 109.364, 106.813 109.683 M 120.750 109.662 C 121.438 109.940, 122.563 109.940, 123.250 109.662 C 123.938 109.385, 123.375 109.158, 122 109.158 C 120.625 109.158, 120.063 109.385, 120.750 109.662 M 125 109.882 C 125 110.432, 125.450 111.160, 126 111.500 C 126.550 111.840, 127 111.668, 127 111.118 C 127 110.568, 126.550 109.840, 126 109.500 C 125.450 109.160, 125 109.332, 125 109.882 M 65 111.345 C 65 112.085, 64.100 113.505, 63 114.500 C 61.900 115.495, 61.014 116.803, 61.030 117.405 C 61.047 118.007, 61.519 117.713, 62.080 116.750 C 62.641 115.787, 63.779 115, 64.609 115 C 65.439 115, 65.838 115.453, 65.495 116.008 C 65.135 116.590, 65.953 116.523, 67.436 115.847 C 69.944 114.704, 70.895 111.671, 69.093 110.558 C 68.595 110.249, 68.422 110.898, 68.710 111.999 C 69.106 113.513, 68.741 114, 67.210 114 C 65.680 114, 65.315 113.513, 65.710 112 C 65.998 110.900, 65.956 110, 65.617 110 C 65.277 110, 65 110.605, 65 111.345 M 113 111 C 113 111.733, 113.300 112.033, 113.667 111.667 C 114.033 111.300, 114.033 110.700, 113.667 110.333 C 113.300 109.967, 113 110.267, 113 111 M 54.830 114.669 C 55.149 117.404, 54.795 118.677, 53.438 119.669 C 51.913 120.784, 51.875 121, 53.202 121 C 54.073 121, 55.059 120.288, 55.393 119.418 C 56.276 117.117, 56.137 111, 55.201 111 C 54.761 111, 54.594 112.651, 54.830 114.669 M 62 112 C 62 112.733, 62.300 113.033, 62.667 112.667 C 63.033 112.300, 63.033 111.700, 62.667 111.333 C 62.300 110.967, 62 111.267, 62 112 M 106.655 111.750 C 106.400 112.162, 107.230 112.500, 108.500 112.500 C 109.770 112.500, 110.600 112.162, 110.345 111.750 C 110.091 111.338, 109.260 111, 108.500 111 C 107.740 111, 106.909 111.338, 106.655 111.750 M 119.405 112.155 C 118.962 112.870, 119.130 113.038, 119.845 112.595 C 120.998 111.883, 121.393 111, 120.559 111 C 120.316 111, 119.797 111.520, 119.405 112.155 M 122.500 112 C 122.840 112.550, 123.343 113, 123.618 113 C 123.893 113, 123.840 112.550, 123.500 112 C 123.160 111.450, 122.657 111, 122.382 111 C 122.107 111, 122.160 111.450, 122.500 112 M 50.333 112.667 C 50.700 113.033, 51.300 113.033, 51.667 112.667 C 52.033 112.300, 51.733 112, 51 112 C 50.267 112, 49.967 112.300, 50.333 112.667 M 46.500 114 C 46.840 114.550, 47.343 115, 47.618 115 C 47.893 115, 47.840 114.550, 47.500 114 C 47.160 113.450, 46.657 113, 46.382 113 C 46.107 113, 46.160 113.450, 46.500 114 M 115.158 115 C 115.158 116.375, 115.385 116.938, 115.662 116.250 C 115.940 115.563, 115.940 114.438, 115.662 113.750 C 115.385 113.063, 115.158 113.625, 115.158 115 M 127.158 115 C 127.158 116.375, 127.385 116.938, 127.662 116.250 C 127.940 115.563, 127.940 114.438, 127.662 113.750 C 127.385 113.063, 127.158 113.625, 127.158 115 M 118.079 115.583 C 118.127 116.748, 118.364 116.985, 118.683 116.188 C 118.972 115.466, 118.936 114.603, 118.604 114.271 C 118.272 113.939, 118.036 114.529, 118.079 115.583 M 124.079 115.583 C 124.127 116.748, 124.364 116.985, 124.683 116.188 C 124.972 115.466, 124.936 114.603, 124.604 114.271 C 124.272 113.939, 124.036 114.529, 124.079 115.583 M 45.195 117.500 C 45.215 119.150, 45.439 119.704, 45.693 118.731 C 45.947 117.758, 45.930 116.408, 45.656 115.731 C 45.382 115.054, 45.175 115.850, 45.195 117.500 M 72.195 117.500 C 72.215 119.150, 72.439 119.704, 72.693 118.731 C 72.947 117.758, 72.930 116.408, 72.656 115.731 C 72.382 115.054, 72.175 115.850, 72.195 117.500 M 103 116 C 103 116.733, 103.300 117.033, 103.667 116.667 C 104.033 116.300, 104.033 115.700, 103.667 115.333 C 103.300 114.967, 103 115.267, 103 116 M 113.420 117.369 C 113.929 118.934, 113.615 119.159, 111.491 118.753 C 110.094 118.487, 108.711 118.658, 108.417 119.134 C 108.123 119.610, 109.709 120, 111.941 120 C 114.173 120, 116.225 120, 116.500 120 C 116.775 120, 117 119.662, 117 119.250 C 117 118.838, 116.534 118.500, 115.964 118.500 C 115.393 118.500, 114.451 117.825, 113.869 117 C 113.001 115.769, 112.920 115.835, 113.420 117.369 M 80 118 C 80 118.733, 80.300 119.033, 80.667 118.667 C 81.033 118.300, 81.033 117.700, 80.667 117.333 C 80.300 116.967, 80 117.267, 80 118 M 49.500 119 C 49.840 119.550, 50.343 120, 50.618 120 C 50.893 120, 50.840 119.550, 50.500 119 C 50.160 118.450, 49.657 118, 49.382 118 C 49.107 118, 49.160 118.450, 49.500 119 M 66.813 118.683 C 67.534 118.972, 68.397 118.936, 68.729 118.604 C 69.061 118.272, 68.471 118.036, 67.417 118.079 C 66.252 118.127, 66.015 118.364, 66.813 118.683 M 75.559 119.532 C 73.986 120.721, 73.918 121, 75.202 121 C 76.073 121, 77.045 120.325, 77.362 119.500 C 78.059 117.683, 78.002 117.684, 75.559 119.532 M 125.405 119.155 C 124.962 119.870, 125.130 120.038, 125.845 119.595 C 126.998 118.883, 127.393 118, 126.559 118 C 126.316 118, 125.797 118.520, 125.405 119.155 M 59.333 119.667 C 59.700 120.033, 60.300 120.033, 60.667 119.667 C 61.033 119.300, 60.733 119, 60 119 C 59.267 119, 58.967 119.300, 59.333 119.667 M 62.405 120.155 C 61.962 120.870, 62.130 121.038, 62.845 120.595 C 63.480 120.203, 64 119.684, 64 119.441 C 64 118.607, 63.117 119.002, 62.405 120.155 M 92.065 120.421 C 91.098 121.587, 91.254 121.746, 92.932 121.308 C 94.057 121.013, 94.731 120.374, 94.430 119.886 C 93.697 118.701, 93.446 118.757, 92.065 120.421 M 99.500 120 C 99.840 120.550, 100.343 121, 100.618 121 C 100.893 121, 100.840 120.550, 100.500 120 C 100.160 119.450, 99.657 119, 99.382 119 C 99.107 119, 99.160 119.450, 99.500 120 M 38.651 121.235 C 38.018 121.639, 40.613 121.976, 44.417 121.985 C 48.221 121.993, 51.066 121.732, 50.738 121.405 C 49.855 120.522, 39.985 120.383, 38.651 121.235 M 68.733 121.124 C 69.412 121.808, 70.219 122.115, 70.526 121.807 C 70.834 121.499, 70.279 120.940, 69.293 120.564 C 67.868 120.022, 67.753 120.136, 68.733 121.124 M 83.333 121.667 C 83.333 122.558, 84.522 122.950, 86.917 122.850 C 89.966 122.723, 90.088 122.638, 87.733 122.282 C 86.211 122.052, 85.179 121.520, 85.439 121.099 C 85.699 120.678, 85.332 120.333, 84.623 120.333 C 83.914 120.333, 83.333 120.933, 83.333 121.667 M 120 121 C 120 122.253, 121.061 122.253, 123 121 C 124.213 120.216, 124.069 120.028, 122.250 120.015 C 121.013 120.007, 120 120.450, 120 121 M 127.500 124 C 127.840 124.550, 128.343 125, 128.618 125 C 128.893 125, 128.840 124.550, 128.500 124 C 128.160 123.450, 127.657 123, 127.382 123 C 127.107 123, 127.160 123.450, 127.500 124 M 118.405 125.155 C 117.962 125.870, 118.130 126.038, 118.845 125.595 C 119.998 124.883, 120.393 124, 119.559 124 C 119.316 124, 118.797 124.520, 118.405 125.155 M 124.500 127 C 124.500 128.545, 124.838 129.600, 125.250 129.345 C 125.662 129.091, 126 128.035, 126 127 C 126 125.965, 125.662 124.909, 125.250 124.655 C 124.838 124.400, 124.500 125.455, 124.500 127 M 118.500 129 C 118.840 129.550, 119.343 130, 119.618 130 C 119.893 130, 119.840 129.550, 119.500 129 C 119.160 128.450, 118.657 128, 118.382 128 C 118.107 128, 118.160 128.450, 118.500 129 M 115.500 130 C 115.840 130.550, 116.343 131, 116.618 131 C 116.893 131, 116.840 130.550, 116.500 130 C 116.160 129.450, 115.657 129, 115.382 129 C 115.107 129, 115.160 129.450, 115.500 130 M 127.405 130.155 C 126.962 130.870, 127.130 131.038, 127.845 130.595 C 128.480 130.203, 129 129.684, 129 129.441 C 129 128.607, 128.117 129.002, 127.405 130.155 M 118.333 131.667 C 118.700 132.033, 119.300 132.033, 119.667 131.667 C 120.033 131.300, 119.733 131, 119 131 C 118.267 131, 117.967 131.300, 118.333 131.667 M 124.333 131.667 C 124.700 132.033, 125.300 132.033, 125.667 131.667 C 126.033 131.300, 125.733 131, 125 131 C 124.267 131, 123.967 131.300, 124.333 131.667" stroke="none" fill="#8b86b5" fill-rule="evenodd"/><path d="M 40.250 22.220 C 37.061 23.758, 37.314 28.527, 40.883 34.154 C 44.842 40.398, 56.626 51.863, 67.199 59.758 C 75.837 66.208, 75.979 66.382, 74.482 68.668 C 72.954 71, 72.954 71, 84.977 71 C 91.590 71, 97 70.784, 97 70.520 C 97 69.908, 89.003 49.813, 88.318 48.706 C 88.036 48.249, 86.782 49.262, 85.533 50.956 C 83.260 54.036, 83.260 54.036, 75.380 48.400 C 59.664 37.159, 49.961 27.149, 51.329 23.585 C 52.235 21.225, 44.332 20.252, 40.250 22.220 M 84.388 103.295 C 85.896 104.397, 86.110 105.880, 85.829 113.297 C 85.500 122.005, 85.500 122.005, 88.500 121.923 C 90.150 121.879, 90.938 121.615, 90.250 121.338 C 89.374 120.984, 89 118.014, 89 111.417 C 89 102, 89 102, 85.809 102 C 82.952 102, 82.803 102.136, 84.388 103.295 M 78.250 103.718 C 76.233 104.442, 76.817 107, 79 107 C 80.100 107, 81 106.352, 81 105.559 C 81 103.820, 79.942 103.111, 78.250 103.718 M 95.122 104.353 C 93.906 105.818, 94.596 107, 96.667 107 C 98.156 107, 98.492 104.422, 97.113 103.570 C 96.626 103.269, 95.730 103.621, 95.122 104.353 M 41.251 106.250 C 43.468 107.947, 44.004 118.752, 41.936 120.061 C 40.946 120.687, 41.744 120.938, 44.500 120.869 C 46.700 120.813, 47.712 120.562, 46.750 120.311 C 45.390 119.955, 45.009 118.810, 45.039 115.177 L 45.078 110.500 47.727 114.897 L 50.377 119.294 52.385 115.147 C 55.077 109.590, 56.359 109.913, 55.774 116 C 55.294 121, 55.294 121, 58.897 120.884 C 60.879 120.820, 61.712 120.562, 60.750 120.311 C 58.187 119.641, 58.187 107.573, 60.750 106.080 C 62.205 105.233, 61.962 105.056, 59.314 105.030 C 56.625 105.005, 55.777 105.624, 53.880 109 C 52.643 111.200, 51.333 113, 50.968 113 C 50.603 113, 49.492 111.200, 48.500 109 C 46.889 105.427, 46.319 105, 43.157 105 C 40.121 105, 39.850 105.178, 41.251 106.250 M 124.362 108.500 C 124.045 109.325, 122.905 110, 121.827 110 C 118.245 110, 116 111.917, 116 114.976 C 116 116.574, 116.457 118.165, 117.016 118.510 C 117.575 118.856, 117.700 119.670, 117.293 120.319 C 116.886 120.969, 116.515 121.950, 116.469 122.500 C 116.423 123.050, 116.002 124.349, 115.534 125.386 C 114.378 127.944, 116.031 130.291, 119.737 131.353 C 123.586 132.458, 128.378 130.336, 128.807 127.337 C 129.166 124.830, 125.704 122, 122.277 122 C 121.025 122, 120 121.550, 120 121 C 120 120.450, 121.035 120, 122.300 120 C 123.565 120, 125.140 119.460, 125.800 118.800 C 127.254 117.346, 127.390 112.359, 126 111.500 C 125.450 111.160, 125 110.403, 125 109.819 C 125 109.118, 125.482 109.155, 126.411 109.926 C 127.978 111.227, 129.581 109.749, 128.500 108 C 127.568 106.492, 125.014 106.800, 124.362 108.500 M 63.374 110.467 C 63.065 111.274, 63.049 112.511, 63.338 113.217 C 63.667 114.017, 64.128 113.634, 64.563 112.198 C 65.487 109.148, 69.366 109.555, 69.820 112.750 C 70.012 114.103, 69.613 115.006, 68.820 115.015 C 67.833 115.027, 67.802 115.223, 68.697 115.792 C 69.426 116.255, 69.563 117.088, 69.048 117.922 C 67.888 119.800, 64.612 118.453, 65.393 116.419 C 65.817 115.314, 65.483 114.953, 64.258 115.189 C 62.086 115.607, 61.413 118.561, 63.323 119.294 C 66.254 120.418, 74.528 121.162, 73.105 120.173 C 72.148 119.507, 71.909 118.203, 72.346 116.019 C 73.279 111.353, 71.632 109, 67.433 109 C 65.283 109, 63.721 109.565, 63.374 110.467 M 101.500 110.047 C 99.968 110.669, 99.882 110.876, 101.133 110.930 C 103.103 111.014, 104.348 116.157, 102.659 117.232 C 101.984 117.662, 102.548 117.976, 104.010 117.985 C 106.180 117.998, 106.518 117.560, 106.510 114.750 C 106.502 112.163, 106.908 111.500, 108.500 111.500 C 110.145 111.500, 110.500 112.167, 110.500 115.251 C 110.500 117.919, 110.933 119.001, 112 118.999 C 113.707 118.996, 114.486 113.365, 113.090 111.130 C 112.106 109.555, 104.467 108.841, 101.500 110.047 M 77.500 115.503 C 77.500 120.952, 77.527 121, 80.500 120.968 C 83.049 120.941, 83.265 120.753, 81.937 119.718 C 80.816 118.845, 80.492 117.297, 80.792 114.250 C 81.148 110.626, 80.937 110, 79.355 110.003 C 77.774 110.005, 77.500 110.817, 77.500 115.503 M 94.624 115.249 C 94.742 120.257, 94.881 120.515, 97.624 120.827 C 99.945 121.091, 100.259 120.908, 99.250 119.877 C 98.563 119.175, 98 116.665, 98 114.300 C 98 110.872, 97.645 110, 96.250 109.999 C 94.790 109.999, 94.520 110.868, 94.624 115.249 M 118.980 113.038 C 116.635 117.419, 120.933 121.196, 124.025 117.470 C 124.995 116.301, 125.029 115.359, 124.168 113.470 C 122.802 110.471, 120.458 110.276, 118.980 113.038 M 118.386 125.436 C 117.248 128.402, 118.785 130.147, 122.243 129.814 C 124.967 129.551, 125.500 129.091, 125.500 127 C 125.500 124.909, 124.967 124.449, 122.243 124.186 C 120 123.970, 118.799 124.359, 118.386 125.436" stroke="none" fill="#1174a2" fill-rule="evenodd"/><path d="M 76.333 18.667 C 76.700 19.033, 77.300 19.033, 77.667 18.667 C 78.033 18.300, 77.733 18, 77 18 C 76.267 18, 75.967 18.300, 76.333 18.667 M 85.333 18.667 C 85.700 19.033, 86.300 19.033, 86.667 18.667 C 87.033 18.300, 86.733 18, 86 18 C 85.267 18, 84.967 18.300, 85.333 18.667 M 103.500 26 C 103.840 26.550, 104.343 27, 104.618 27 C 104.893 27, 104.840 26.550, 104.500 26 C 104.160 25.450, 103.657 25, 103.382 25 C 103.107 25, 103.160 25.450, 103.500 26 M 109.500 32 C 109.840 32.550, 110.343 33, 110.618 33 C 110.893 33, 110.840 32.550, 110.500 32 C 110.160 31.450, 109.657 31, 109.382 31 C 109.107 31, 109.160 31.450, 109.500 32 M 117.079 52.583 C 117.127 53.748, 117.364 53.985, 117.683 53.188 C 117.972 52.466, 117.936 51.603, 117.604 51.271 C 117.272 50.939, 117.036 51.529, 117.079 52.583 M 117.079 58.583 C 117.127 59.748, 117.364 59.985, 117.683 59.188 C 117.972 58.466, 117.936 57.603, 117.604 57.271 C 117.272 56.939, 117.036 57.529, 117.079 58.583 M 121.500 69 C 121.160 69.550, 121.610 70, 122.500 70 C 123.390 70, 123.840 69.550, 123.500 69 C 123.160 68.450, 122.710 68, 122.500 68 C 122.290 68, 121.840 68.450, 121.500 69 M 41.509 76.075 C 42.804 80.234, 48.909 88.694, 52.708 91.591 C 54.706 93.115, 58.852 95.395, 61.920 96.657 C 72.200 100.886, 88.308 99.190, 97.062 92.956 C 100.047 90.830, 100.047 90.830, 103.524 92.881 C 105.436 94.010, 107 94.731, 107 94.485 C 107 94.240, 105.138 89.530, 102.862 84.019 L 98.723 74 89.112 74.070 C 83.825 74.109, 78.603 74.491, 77.507 74.919 C 75.688 75.629, 75.798 75.844, 78.757 77.374 C 80.540 78.297, 82 79.257, 82 79.509 C 82 79.760, 79.638 81.203, 76.750 82.714 C 72.299 85.043, 70.283 85.462, 63.500 85.463 C 54.198 85.466, 49.368 83.462, 44.032 77.384 C 41.294 74.265, 40.879 74.050, 41.509 76.075" stroke="none" fill="#dc4a4a" fill-rule="evenodd"/><path d="M 112.250 72.745 C 107.162 72.927, 102.993 73.396, 102.985 73.788 C 102.977 74.179, 104.852 78.684, 107.153 83.799 C 111.336 93.097, 111.336 93.097, 113.198 90.156 C 115.061 87.214, 115.061 87.214, 119.780 88.656 C 126.193 90.614, 134.270 90.845, 136.343 89.128 C 138.617 87.244, 138.419 83.518, 135.799 78.856 C 134.266 76.128, 133.128 75.123, 132.049 75.544 C 130.185 76.271, 130.226 76.267, 126.633 76.118 C 124.283 76.021, 123.861 75.640, 124.290 74 C 124.669 72.551, 124.357 72.057, 123.156 72.208 C 122.245 72.322, 117.338 72.564, 112.250 72.745" stroke="none" fill="#00c185" fill-rule="evenodd"/><path d="M 79.500 18.889 C 80.600 19.398, 82.945 20.353, 84.712 21.012 C 92.962 24.092, 100 36.111, 100 47.122 C 100 52.610, 98.913 53.753, 95.779 51.558 C 94.556 50.701, 93.237 50, 92.848 50 C 92.458 50, 94.212 54.500, 96.743 60 L 101.347 70 111.114 70 C 121.095 70, 124.078 68.904, 119.622 66.874 C 117.228 65.783, 117.133 65.384, 117.169 56.619 C 117.212 46.583, 115.323 39.960, 110.391 32.843 C 107.242 28.299, 100.248 23.002, 94.395 20.727 C 89.943 18.998, 76.013 17.279, 79.500 18.889" stroke="none" fill="#d0268b" fill-rule="evenodd"/></svg>